solid OpenSCAD_Model
  facet normal -1 0 0
    outer loop
      vertex -61.1 32.1 3.5
      vertex -61.1 32.1 -3.5
      vertex -61.1 -32.1 3.5
    endloop
  endfacet
  facet normal -1 0 0
    outer loop
      vertex -61.1 -32.1 3.5
      vertex -61.1 32.1 -3.5
      vertex -61.1 -32.1 -3.5
    endloop
  endfacet
  facet normal 0 1 -1.22465e-16
    outer loop
      vertex -61.1 32.1 3.5
      vertex -5 32.1 3.5
      vertex -61.1 32.1 -3.5
    endloop
  endfacet
  facet normal 0 1 -1.22465e-16
    outer loop
      vertex -61.1 32.1 -3.5
      vertex -5 32.1 3.5
      vertex -5 32.1 -3.5
    endloop
  endfacet
  facet normal 0 1.22465e-16 1
    outer loop
      vertex -59.2 30.2 3.5
      vertex -61.1 32.1 3.5
      vertex -61.1 -32.1 3.5
    endloop
  endfacet
  facet normal 0 1.22465e-16 1
    outer loop
      vertex -5 -32.1 3.5
      vertex -5 -31.2 3.5
      vertex -61.1 -32.1 3.5
    endloop
  endfacet
  facet normal 0 1.22465e-16 1
    outer loop
      vertex 5 -32.1 3.5
      vertex 61.1 -32.1 3.5
      vertex 5 -31.2 3.5
    endloop
  endfacet
  facet normal 0 1.22465e-16 1
    outer loop
      vertex 61.1 -32.1 3.5
      vertex 61.1 -4.5 3.5
      vertex 59.2 -4.5 3.5
    endloop
  endfacet
  facet normal 0 1.22465e-16 1
    outer loop
      vertex 61.1 -32.1 3.5
      vertex 59.2 -4.5 3.5
      vertex 59.2 -30.2 3.5
    endloop
  endfacet
  facet normal 0 1.22465e-16 1
    outer loop
      vertex -5 -31.2 3.5
      vertex -59.2 -30.2 3.5
      vertex -61.1 -32.1 3.5
    endloop
  endfacet
  facet normal 0 1.22465e-16 1
    outer loop
      vertex -5 32.1 3.5
      vertex -61.1 32.1 3.5
      vertex -59.2 30.2 3.5
    endloop
  endfacet
  facet normal 0 1.22465e-16 1
    outer loop
      vertex 5 32.1 3.5
      vertex 5 31.2 3.5
      vertex 59.2 30.2 3.5
    endloop
  endfacet
  facet normal 0 1.22465e-16 1
    outer loop
      vertex 61.1 4.5 3.5
      vertex 61.1 32.1 3.5
      vertex 59.2 30.2 3.5
    endloop
  endfacet
  facet normal 0 1.22465e-16 1
    outer loop
      vertex 59.2 30.2 3.5
      vertex 61.1 32.1 3.5
      vertex 5 32.1 3.5
    endloop
  endfacet
  facet normal 0 1.22465e-16 1
    outer loop
      vertex 59.2 4.5 3.5
      vertex 61.1 4.5 3.5
      vertex 59.2 30.2 3.5
    endloop
  endfacet
  facet normal 0 1.22465e-16 1
    outer loop
      vertex -59.2 -30.2 3.5
      vertex -59.2 30.2 3.5
      vertex -61.1 -32.1 3.5
    endloop
  endfacet
  facet normal 0 1.22465e-16 1
    outer loop
      vertex 59.2 -30.2 3.5
      vertex 5 -31.2 3.5
      vertex 61.1 -32.1 3.5
    endloop
  endfacet
  facet normal 0 1.22465e-16 1
    outer loop
      vertex 59.2 -30.2 3.5
      vertex -5 -31.2 3.5
      vertex 5 -31.2 3.5
    endloop
  endfacet
  facet normal 0 1.22465e-16 1
    outer loop
      vertex 59.2 -30.2 3.5
      vertex -59.2 -30.2 3.5
      vertex -5 -31.2 3.5
    endloop
  endfacet
  facet normal 0 1.22465e-16 1
    outer loop
      vertex -59.2 30.2 3.5
      vertex -5 31.2 3.5
      vertex -5 32.1 3.5
    endloop
  endfacet
  facet normal 0 1.22465e-16 1
    outer loop
      vertex -59.2 30.2 3.5
      vertex 5 31.2 3.5
      vertex -5 31.2 3.5
    endloop
  endfacet
  facet normal 0 1.22465e-16 1
    outer loop
      vertex -59.2 30.2 3.5
      vertex 59.2 30.2 3.5
      vertex 5 31.2 3.5
    endloop
  endfacet
  facet normal 0 -1 1.22465e-16
    outer loop
      vertex -5 -32.1 3.5
      vertex -61.1 -32.1 3.5
      vertex -61.1 -32.1 -3.5
    endloop
  endfacet
  facet normal 0 -1 1.22465e-16
    outer loop
      vertex -5 -32.1 -3.5
      vertex -5 -32.1 3.5
      vertex -61.1 -32.1 -3.5
    endloop
  endfacet
  facet normal 0 -1.22465e-16 -1
    outer loop
      vertex 5 33.2 -3.5
      vertex -5 32.1 -3.5
      vertex -5 33.2 -3.5
    endloop
  endfacet
  facet normal 0 -1.22465e-16 -1
    outer loop
      vertex -33.362 -5.15169 -3.5
      vertex 5 33.2 -3.5
      vertex 5 32.1 -3.5
    endloop
  endfacet
  facet normal 0 -1.22465e-16 -1
    outer loop
      vertex 13.15 18.5 -3.5
      vertex 5 32.1 -3.5
      vertex 61.1 32.1 -3.5
    endloop
  endfacet
  facet normal 0 -1.22465e-16 -1
    outer loop
      vertex 24.85 -18.5 -3.5
      vertex 61.1 32.1 -3.5
      vertex 61.1 -32.1 -3.5
    endloop
  endfacet
  facet normal 0 -1.22465e-16 -1
    outer loop
      vertex -31.8506 6.55296 -3.5
      vertex -5 32.1 -3.5
      vertex -32.4475 5.51907 -3.5
    endloop
  endfacet
  facet normal 0 -1.22465e-16 -1
    outer loop
      vertex 5 -32.1 -3.5
      vertex 5 -33.2 -3.5
      vertex -5 -32.1 -3.5
    endloop
  endfacet
  facet normal 0 -1.22465e-16 -1
    outer loop
      vertex 24.85 -18.5 -3.5
      vertex 5 -32.1 -3.5
      vertex 13.15 -18.5 -3.5
    endloop
  endfacet
  facet normal 0 -1.22465e-16 -1
    outer loop
      vertex -40.6375 -8.9 -3.5
      vertex -61.1 -32.1 -3.5
      vertex -40.5651 -8.48958 -3.5
    endloop
  endfacet
  facet normal 0 -1.22465e-16 -1
    outer loop
      vertex -61.1 32.1 -3.5
      vertex -40.5651 8.91042 -3.5
      vertex -61.1 -32.1 -3.5
    endloop
  endfacet
  facet normal 0 -1.22465e-16 -1
    outer loop
      vertex -40.5651 8.91042 -3.5
      vertex -40.6375 8.5 -3.5
      vertex -61.1 -32.1 -3.5
    endloop
  endfacet
  facet normal 0 -1.22465e-16 -1
    outer loop
      vertex -34.8031 12.9245 -3.5
      vertex -5 32.1 -3.5
      vertex -33.6812 12.5162 -3.5
    endloop
  endfacet
  facet normal 0 -1.22465e-16 -1
    outer loop
      vertex -40.6375 8.5 -3.5
      vertex -40.4302 7.32431 -3.5
      vertex -61.1 -32.1 -3.5
    endloop
  endfacet
  facet normal 0 -1.22465e-16 -1
    outer loop
      vertex -33.6812 12.5162 -3.5
      vertex -5 32.1 -3.5
      vertex -33.362 12.2483 -3.5
    endloop
  endfacet
  facet normal 0 -1.22465e-16 -1
    outer loop
      vertex -40.4302 7.32431 -3.5
      vertex -40.3578 6.91388 -3.5
      vertex -61.1 -32.1 -3.5
    endloop
  endfacet
  facet normal 0 -1.22465e-16 -1
    outer loop
      vertex -33.362 12.2483 -3.5
      vertex -5 32.1 -3.5
      vertex -32.4475 11.4809 -3.5
    endloop
  endfacet
  facet normal 0 -1.22465e-16 -1
    outer loop
      vertex -40.3578 6.91388 -3.5
      vertex -39.7609 5.87999 -3.5
      vertex -61.1 -32.1 -3.5
    endloop
  endfacet
  facet normal 0 -1.22465e-16 -1
    outer loop
      vertex -39.7609 5.87999 -3.5
      vertex -39.5525 5.51907 -3.5
      vertex -61.1 -32.1 -3.5
    endloop
  endfacet
  facet normal 0 -1.22465e-16 -1
    outer loop
      vertex -32.4475 11.4809 -3.5
      vertex -5 32.1 -3.5
      vertex -32.2391 11.12 -3.5
    endloop
  endfacet
  facet normal 0 -1.22465e-16 -1
    outer loop
      vertex -39.5525 5.51907 -3.5
      vertex -38.638 4.75169 -3.5
      vertex -61.1 -32.1 -3.5
    endloop
  endfacet
  facet normal 0 -1.22465e-16 -1
    outer loop
      vertex -32.2391 11.12 -3.5
      vertex -5 32.1 -3.5
      vertex -31.6422 10.0861 -3.5
    endloop
  endfacet
  facet normal 0 -1.22465e-16 -1
    outer loop
      vertex -38.638 4.75169 -3.5
      vertex -38.3187 4.48381 -3.5
      vertex -61.1 -32.1 -3.5
    endloop
  endfacet
  facet normal 0 -1.22465e-16 -1
    outer loop
      vertex -31.6422 10.0861 -3.5
      vertex -5 32.1 -3.5
      vertex -31.5698 9.67569 -3.5
    endloop
  endfacet
  facet normal 0 -1.22465e-16 -1
    outer loop
      vertex -38.3187 4.48381 -3.5
      vertex -37.1969 4.07549 -3.5
      vertex -61.1 -32.1 -3.5
    endloop
  endfacet
  facet normal 0 -1.22465e-16 -1
    outer loop
      vertex -37.1969 4.07549 -3.5
      vertex -36.8053 3.93295 -3.5
      vertex -61.1 -32.1 -3.5
    endloop
  endfacet
  facet normal 0 -1.22465e-16 -1
    outer loop
      vertex -31.5698 9.67569 -3.5
      vertex -5 32.1 -3.5
      vertex -31.3625 8.5 -3.5
    endloop
  endfacet
  facet normal 0 -1.22465e-16 -1
    outer loop
      vertex -36.8053 3.93295 -3.5
      vertex -35.1947 3.93295 -3.5
      vertex -61.1 -32.1 -3.5
    endloop
  endfacet
  facet normal 0 -1.22465e-16 -1
    outer loop
      vertex -31.4349 8.08958 -3.5
      vertex -5 32.1 -3.5
      vertex -31.6422 6.91388 -3.5
    endloop
  endfacet
  facet normal 0 -1.22465e-16 -1
    outer loop
      vertex -35.1947 3.93295 -3.5
      vertex -34.0729 4.34127 -3.5
      vertex -61.1 -32.1 -3.5
    endloop
  endfacet
  facet normal 0 -1.22465e-16 -1
    outer loop
      vertex -34.0729 4.34127 -3.5
      vertex -33.6812 4.48381 -3.5
      vertex -61.1 -32.1 -3.5
    endloop
  endfacet
  facet normal 0 -1.22465e-16 -1
    outer loop
      vertex -33.6812 4.48381 -3.5
      vertex -32.7667 5.25119 -3.5
      vertex -61.1 -32.1 -3.5
    endloop
  endfacet
  facet normal 0 -1.22465e-16 -1
    outer loop
      vertex -34.8031 -4.47549 -3.5
      vertex 5 33.2 -3.5
      vertex -33.6812 -4.88381 -3.5
    endloop
  endfacet
  facet normal 0 -1.22465e-16 -1
    outer loop
      vertex -32.7667 5.25119 -3.5
      vertex -32.4475 5.51907 -3.5
      vertex -61.1 -32.1 -3.5
    endloop
  endfacet
  facet normal 0 -1.22465e-16 -1
    outer loop
      vertex -31.6422 6.91388 -3.5
      vertex -5 32.1 -3.5
      vertex -31.8506 6.55296 -3.5
    endloop
  endfacet
  facet normal 0 -1.22465e-16 -1
    outer loop
      vertex -31.3625 8.5 -3.5
      vertex -5 32.1 -3.5
      vertex -31.4349 8.08958 -3.5
    endloop
  endfacet
  facet normal 0 -1.22465e-16 -1
    outer loop
      vertex -61.1 32.1 -3.5
      vertex -5 32.1 -3.5
      vertex -34.8031 12.9245 -3.5
    endloop
  endfacet
  facet normal 0 -1.22465e-16 -1
    outer loop
      vertex -61.1 32.1 -3.5
      vertex -34.8031 12.9245 -3.5
      vertex -35.1947 13.067 -3.5
    endloop
  endfacet
  facet normal 0 -1.22465e-16 -1
    outer loop
      vertex -61.1 32.1 -3.5
      vertex -35.1947 13.067 -3.5
      vertex -36.8053 13.067 -3.5
    endloop
  endfacet
  facet normal 0 -1.22465e-16 -1
    outer loop
      vertex -61.1 32.1 -3.5
      vertex -36.8053 13.067 -3.5
      vertex -37.9271 12.6587 -3.5
    endloop
  endfacet
  facet normal 0 -1.22465e-16 -1
    outer loop
      vertex -61.1 32.1 -3.5
      vertex -37.9271 12.6587 -3.5
      vertex -38.3187 12.5162 -3.5
    endloop
  endfacet
  facet normal 0 -1.22465e-16 -1
    outer loop
      vertex -61.1 32.1 -3.5
      vertex -38.3187 12.5162 -3.5
      vertex -39.2333 11.7488 -3.5
    endloop
  endfacet
  facet normal 0 -1.22465e-16 -1
    outer loop
      vertex -61.1 32.1 -3.5
      vertex -39.2333 11.7488 -3.5
      vertex -39.5525 11.4809 -3.5
    endloop
  endfacet
  facet normal 0 -1.22465e-16 -1
    outer loop
      vertex -61.1 32.1 -3.5
      vertex -39.5525 11.4809 -3.5
      vertex -40.1494 10.447 -3.5
    endloop
  endfacet
  facet normal 0 -1.22465e-16 -1
    outer loop
      vertex -61.1 32.1 -3.5
      vertex -40.1494 10.447 -3.5
      vertex -40.3578 10.0861 -3.5
    endloop
  endfacet
  facet normal 0 -1.22465e-16 -1
    outer loop
      vertex -61.1 32.1 -3.5
      vertex -40.3578 10.0861 -3.5
      vertex -40.5651 8.91042 -3.5
    endloop
  endfacet
  facet normal 0 -1.22465e-16 -1
    outer loop
      vertex -39.2333 -5.65119 -3.5
      vertex -32.4475 5.51907 -3.5
      vertex -38.3187 -4.88381 -3.5
    endloop
  endfacet
  facet normal 0 -1.22465e-16 -1
    outer loop
      vertex -40.3578 -7.31388 -3.5
      vertex -40.5651 -8.48958 -3.5
      vertex -61.1 -32.1 -3.5
    endloop
  endfacet
  facet normal 0 -1.22465e-16 -1
    outer loop
      vertex -37.9271 -4.74127 -3.5
      vertex -5 32.1 -3.5
      vertex -36.8053 -4.33295 -3.5
    endloop
  endfacet
  facet normal 0 -1.22465e-16 -1
    outer loop
      vertex 13.15 -18.5 -3.5
      vertex -33.6812 -12.9162 -3.5
      vertex -32.7667 -12.1488 -3.5
    endloop
  endfacet
  facet normal 0 -1.22465e-16 -1
    outer loop
      vertex -61.1 -32.1 -3.5
      vertex -40.6375 -8.9 -3.5
      vertex -40.4302 -10.0757 -3.5
    endloop
  endfacet
  facet normal 0 -1.22465e-16 -1
    outer loop
      vertex -36.8053 -4.33295 -3.5
      vertex 5 33.2 -3.5
      vertex -35.1947 -4.33295 -3.5
    endloop
  endfacet
  facet normal 0 -1.22465e-16 -1
    outer loop
      vertex -61.1 -32.1 -3.5
      vertex -40.4302 -10.0757 -3.5
      vertex -40.3578 -10.4861 -3.5
    endloop
  endfacet
  facet normal 0 -1.22465e-16 -1
    outer loop
      vertex -61.1 -32.1 -3.5
      vertex -39.7609 -11.52 -3.5
      vertex -39.5525 -11.8809 -3.5
    endloop
  endfacet
  facet normal 0 -1.22465e-16 -1
    outer loop
      vertex -61.1 -32.1 -3.5
      vertex -39.5525 -11.8809 -3.5
      vertex -38.638 -12.6483 -3.5
    endloop
  endfacet
  facet normal 0 -1.22465e-16 -1
    outer loop
      vertex -61.1 -32.1 -3.5
      vertex -38.638 -12.6483 -3.5
      vertex -38.3187 -12.9162 -3.5
    endloop
  endfacet
  facet normal 0 -1.22465e-16 -1
    outer loop
      vertex -61.1 -32.1 -3.5
      vertex -38.3187 -12.9162 -3.5
      vertex -37.1969 -13.3245 -3.5
    endloop
  endfacet
  facet normal 0 -1.22465e-16 -1
    outer loop
      vertex -61.1 -32.1 -3.5
      vertex -37.1969 -13.3245 -3.5
      vertex -36.8053 -13.467 -3.5
    endloop
  endfacet
  facet normal 0 -1.22465e-16 -1
    outer loop
      vertex -61.1 -32.1 -3.5
      vertex -36.8053 -13.467 -3.5
      vertex -35.1947 -13.467 -3.5
    endloop
  endfacet
  facet normal 0 -1.22465e-16 -1
    outer loop
      vertex -61.1 -32.1 -3.5
      vertex -35.1947 -13.467 -3.5
      vertex -34.0729 -13.0587 -3.5
    endloop
  endfacet
  facet normal 0 -1.22465e-16 -1
    outer loop
      vertex -61.1 -32.1 -3.5
      vertex -34.0729 -13.0587 -3.5
      vertex -33.6812 -12.9162 -3.5
    endloop
  endfacet
  facet normal 0 -1.22465e-16 -1
    outer loop
      vertex -31.6422 -7.31388 -3.5
      vertex 5 32.1 -3.5
      vertex -31.5698 -7.72431 -3.5
    endloop
  endfacet
  facet normal 0 -1.22465e-16 -1
    outer loop
      vertex -33.362 -5.15169 -3.5
      vertex 5 32.1 -3.5
      vertex -32.4475 -5.91907 -3.5
    endloop
  endfacet
  facet normal 0 -1.22465e-16 -1
    outer loop
      vertex -32.2391 -6.27999 -3.5
      vertex 5 32.1 -3.5
      vertex -31.6422 -7.31388 -3.5
    endloop
  endfacet
  facet normal 0 -1.22465e-16 -1
    outer loop
      vertex -32.4475 -5.91907 -3.5
      vertex 5 32.1 -3.5
      vertex -32.2391 -6.27999 -3.5
    endloop
  endfacet
  facet normal 0 -1.22465e-16 -1
    outer loop
      vertex 13.15 -18.5 -3.5
      vertex -32.4475 -11.8809 -3.5
      vertex -31.8506 -10.847 -3.5
    endloop
  endfacet
  facet normal 0 -1.22465e-16 -1
    outer loop
      vertex 13.15 -18.5 -3.5
      vertex -32.7667 -12.1488 -3.5
      vertex -32.4475 -11.8809 -3.5
    endloop
  endfacet
  facet normal 0 -1.22465e-16 -1
    outer loop
      vertex -36.8053 -4.33295 -3.5
      vertex -5 32.1 -3.5
      vertex 5 33.2 -3.5
    endloop
  endfacet
  facet normal 0 -1.22465e-16 -1
    outer loop
      vertex -34.8031 -4.47549 -3.5
      vertex -35.1947 -4.33295 -3.5
      vertex 5 33.2 -3.5
    endloop
  endfacet
  facet normal 0 -1.22465e-16 -1
    outer loop
      vertex -33.6812 -4.88381 -3.5
      vertex 5 33.2 -3.5
      vertex -33.362 -5.15169 -3.5
    endloop
  endfacet
  facet normal 0 -1.22465e-16 -1
    outer loop
      vertex -39.7609 -11.52 -3.5
      vertex -61.1 -32.1 -3.5
      vertex -40.3578 -10.4861 -3.5
    endloop
  endfacet
  facet normal 0 -1.22465e-16 -1
    outer loop
      vertex -32.4475 5.51907 -3.5
      vertex -5 32.1 -3.5
      vertex -37.9271 -4.74127 -3.5
    endloop
  endfacet
  facet normal 0 -1.22465e-16 -1
    outer loop
      vertex -32.4475 5.51907 -3.5
      vertex -37.9271 -4.74127 -3.5
      vertex -38.3187 -4.88381 -3.5
    endloop
  endfacet
  facet normal 0 -1.22465e-16 -1
    outer loop
      vertex -40.1494 -6.95296 -3.5
      vertex -61.1 -32.1 -3.5
      vertex -39.5525 -5.91907 -3.5
    endloop
  endfacet
  facet normal 0 -1.22465e-16 -1
    outer loop
      vertex 13.15 -18.5 -3.5
      vertex -61.1 -32.1 -3.5
      vertex -33.6812 -12.9162 -3.5
    endloop
  endfacet
  facet normal 0 -1.22465e-16 -1
    outer loop
      vertex -32.4475 5.51907 -3.5
      vertex -39.2333 -5.65119 -3.5
      vertex -39.5525 -5.91907 -3.5
    endloop
  endfacet
  facet normal 0 -1.22465e-16 -1
    outer loop
      vertex -32.4475 5.51907 -3.5
      vertex -39.5525 -5.91907 -3.5
      vertex -61.1 -32.1 -3.5
    endloop
  endfacet
  facet normal 0 -1.22465e-16 -1
    outer loop
      vertex 13.15 -18.5 -3.5
      vertex -5 -32.1 -3.5
      vertex -61.1 -32.1 -3.5
    endloop
  endfacet
  facet normal 0 -1.22465e-16 -1
    outer loop
      vertex -40.1494 -6.95296 -3.5
      vertex -40.3578 -7.31388 -3.5
      vertex -61.1 -32.1 -3.5
    endloop
  endfacet
  facet normal 0 -1.22465e-16 -1
    outer loop
      vertex -31.5698 -7.72431 -3.5
      vertex 5 32.1 -3.5
      vertex 13.15 18.5 -3.5
    endloop
  endfacet
  facet normal 0 -1.22465e-16 -1
    outer loop
      vertex 24.85 18.5 -3.5
      vertex 13.15 18.5 -3.5
      vertex 61.1 32.1 -3.5
    endloop
  endfacet
  facet normal 0 -1.22465e-16 -1
    outer loop
      vertex 5 -32.1 -3.5
      vertex -5 -32.1 -3.5
      vertex 13.15 -18.5 -3.5
    endloop
  endfacet
  facet normal 0 -1.22465e-16 -1
    outer loop
      vertex 24.85 18.5 -3.5
      vertex 61.1 32.1 -3.5
      vertex 24.85 -18.5 -3.5
    endloop
  endfacet
  facet normal 0 -1.22465e-16 -1
    outer loop
      vertex 5 -32.1 -3.5
      vertex 24.85 -18.5 -3.5
      vertex 61.1 -32.1 -3.5
    endloop
  endfacet
  facet normal 0 -1.22465e-16 -1
    outer loop
      vertex -5 -32.1 -3.5
      vertex 5 -33.2 -3.5
      vertex -5 -33.2 -3.5
    endloop
  endfacet
  facet normal 0 -1.22465e-16 -1
    outer loop
      vertex 13.15 -18.5 -3.5
      vertex -31.8506 -10.847 -3.5
      vertex -31.6422 -10.4861 -3.5
    endloop
  endfacet
  facet normal 0 -1.22465e-16 -1
    outer loop
      vertex 13.15 -18.5 -3.5
      vertex -31.6422 -10.4861 -3.5
      vertex -31.4349 -9.31042 -3.5
    endloop
  endfacet
  facet normal 0 -1.22465e-16 -1
    outer loop
      vertex 13.15 -18.5 -3.5
      vertex -31.4349 -9.31042 -3.5
      vertex -31.3625 -8.9 -3.5
    endloop
  endfacet
  facet normal 0 -1.22465e-16 -1
    outer loop
      vertex 13.15 -18.5 -3.5
      vertex -31.3625 -8.9 -3.5
      vertex -31.5698 -7.72431 -3.5
    endloop
  endfacet
  facet normal 0 -1.22465e-16 -1
    outer loop
      vertex 13.15 -18.5 -3.5
      vertex -31.5698 -7.72431 -3.5
      vertex 13.15 18.5 -3.5
    endloop
  endfacet
  facet normal -1 0 0
    outer loop
      vertex -5 33.2 8.5
      vertex -5 33.2 -3.5
      vertex -5 33.1586 8.5
    endloop
  endfacet
  facet normal -1 0 0
    outer loop
      vertex -5 33.1586 8.5
      vertex -5 33.2 -3.5
      vertex -5 32.1 -3.5
    endloop
  endfacet
  facet normal -1 0 0
    outer loop
      vertex -5 33.1586 8.5
      vertex -5 32.1 -3.5
      vertex -5 32.1 3.5
    endloop
  endfacet
  facet normal -1 0 0
    outer loop
      vertex -5 33.1586 8.5
      vertex -5 32.1 3.5
      vertex -5 31.2 3.5
    endloop
  endfacet
  facet normal -1 0 0
    outer loop
      vertex -5 33.1586 8.5
      vertex -5 31.2 3.5
      vertex -5 31.2 7.98954
    endloop
  endfacet
  facet normal -1 0 0
    outer loop
      vertex -5 33.1586 8.5
      vertex -5 31.2 7.98954
      vertex -5 30.0217 8.30527
    endloop
  endfacet
  facet normal -1 0 0
    outer loop
      vertex -5 33.1586 8.5
      vertex -5 30.0217 8.30527
      vertex -5 30.2805 9.27119
    endloop
  endfacet
  facet normal 0 -1 1.22465e-16
    outer loop
      vertex 5 31.2 7.98954
      vertex -5 31.2 7.98954
      vertex -5 31.2 3.5
    endloop
  endfacet
  facet normal 0 -1 1.22465e-16
    outer loop
      vertex 5 31.2 3.5
      vertex 5 31.2 7.98954
      vertex -5 31.2 3.5
    endloop
  endfacet
  facet normal 1 0 0
    outer loop
      vertex 5 33.2 -3.5
      vertex 5 33.2 8.5
      vertex 5 33.1586 8.5
    endloop
  endfacet
  facet normal 1 0 0
    outer loop
      vertex 5 32.1 3.5
      vertex 5 33.2 -3.5
      vertex 5 33.1586 8.5
    endloop
  endfacet
  facet normal 1 0 0
    outer loop
      vertex 5 32.1 3.5
      vertex 5 32.1 -3.5
      vertex 5 33.2 -3.5
    endloop
  endfacet
  facet normal 1 0 0
    outer loop
      vertex 5 30.2805 9.27119
      vertex 5 31.2 7.98954
      vertex 5 33.1586 8.5
    endloop
  endfacet
  facet normal 1 0 0
    outer loop
      vertex 5 31.2 7.98954
      vertex 5 32.1 3.5
      vertex 5 33.1586 8.5
    endloop
  endfacet
  facet normal 1 0 0
    outer loop
      vertex 5 31.2 3.5
      vertex 5 32.1 3.5
      vertex 5 31.2 7.98954
    endloop
  endfacet
  facet normal 1 0 0
    outer loop
      vertex 5 30.0217 8.30527
      vertex 5 31.2 7.98954
      vertex 5 30.2805 9.27119
    endloop
  endfacet
  facet normal 0 1 -1.22465e-16
    outer loop
      vertex 5 32.1 3.5
      vertex 61.1 32.1 3.5
      vertex 5 32.1 -3.5
    endloop
  endfacet
  facet normal 0 1 -1.22465e-16
    outer loop
      vertex 5 32.1 -3.5
      vertex 61.1 32.1 3.5
      vertex 61.1 32.1 -3.5
    endloop
  endfacet
  facet normal 1 0 0
    outer loop
      vertex 61.1 32.1 -3.5
      vertex 61.1 32.1 3.5
      vertex 61.1 4.5 3.5
    endloop
  endfacet
  facet normal 1 0 0
    outer loop
      vertex 61.1 -4.5 5.51091e-16
      vertex 61.1 32.1 -3.5
      vertex 61.1 4.5 -5.51091e-16
    endloop
  endfacet
  facet normal 1 0 0
    outer loop
      vertex 61.1 4.5 -5.51091e-16
      vertex 61.1 32.1 -3.5
      vertex 61.1 4.5 3.5
    endloop
  endfacet
  facet normal 1 0 0
    outer loop
      vertex 61.1 -32.1 -3.5
      vertex 61.1 32.1 -3.5
      vertex 61.1 -4.5 5.51091e-16
    endloop
  endfacet
  facet normal 1 0 0
    outer loop
      vertex 61.1 -32.1 3.5
      vertex 61.1 -4.5 5.51091e-16
      vertex 61.1 -4.5 3.5
    endloop
  endfacet
  facet normal 1 0 0
    outer loop
      vertex 61.1 -32.1 -3.5
      vertex 61.1 -4.5 5.51091e-16
      vertex 61.1 -32.1 3.5
    endloop
  endfacet
  facet normal 0 -1 1.22465e-16
    outer loop
      vertex 59.2 4.5 -5.51091e-16
      vertex 61.1 4.5 -5.51091e-16
      vertex 61.1 4.5 3.5
    endloop
  endfacet
  facet normal 0 -1 1.22465e-16
    outer loop
      vertex 59.2 4.5 3.5
      vertex 59.2 4.5 -5.51091e-16
      vertex 61.1 4.5 3.5
    endloop
  endfacet
  facet normal -1 0 0
    outer loop
      vertex 59.2 -30.2 -2
      vertex 59.2 -30.2 3.5
      vertex 59.2 -4.5 5.51091e-16
    endloop
  endfacet
  facet normal -1 0 0
    outer loop
      vertex 59.2 -30.2 -2
      vertex 59.2 -4.5 5.51091e-16
      vertex 59.2 30.2 -2
    endloop
  endfacet
  facet normal -1 0 0
    outer loop
      vertex 59.2 4.5 3.5
      vertex 59.2 30.2 -2
      vertex 59.2 4.5 -5.51091e-16
    endloop
  endfacet
  facet normal -1 0 0
    outer loop
      vertex 59.2 -4.5 5.51091e-16
      vertex 59.2 4.5 -5.51091e-16
      vertex 59.2 30.2 -2
    endloop
  endfacet
  facet normal -1 0 0
    outer loop
      vertex 59.2 30.2 -2
      vertex 59.2 4.5 3.5
      vertex 59.2 30.2 3.5
    endloop
  endfacet
  facet normal -1 0 0
    outer loop
      vertex 59.2 -4.5 5.51091e-16
      vertex 59.2 -30.2 3.5
      vertex 59.2 -4.5 3.5
    endloop
  endfacet
  facet normal 0 -1 1.22465e-16
    outer loop
      vertex -59.2 30.2 -2
      vertex 59.2 30.2 -2
      vertex 59.2 30.2 3.5
    endloop
  endfacet
  facet normal 0 -1 1.22465e-16
    outer loop
      vertex -59.2 30.2 3.5
      vertex -59.2 30.2 -2
      vertex 59.2 30.2 3.5
    endloop
  endfacet
  facet normal 1 0 0
    outer loop
      vertex -59.2 -30.2 3.5
      vertex -59.2 -30.2 -2
      vertex -59.2 30.2 -2
    endloop
  endfacet
  facet normal 1 0 0
    outer loop
      vertex -59.2 30.2 3.5
      vertex -59.2 -30.2 3.5
      vertex -59.2 30.2 -2
    endloop
  endfacet
  facet normal 0 1 -1.22465e-16
    outer loop
      vertex 59.2 -30.2 -2
      vertex -59.2 -30.2 -2
      vertex 59.2 -30.2 3.5
    endloop
  endfacet
  facet normal 0 1 -1.22465e-16
    outer loop
      vertex 59.2 -30.2 3.5
      vertex -59.2 -30.2 -2
      vertex -59.2 -30.2 3.5
    endloop
  endfacet
  facet normal 0 1 -1.22465e-16
    outer loop
      vertex 61.1 -4.5 5.51091e-16
      vertex 59.2 -4.5 5.51091e-16
      vertex 61.1 -4.5 3.5
    endloop
  endfacet
  facet normal 0 1 -1.22465e-16
    outer loop
      vertex 61.1 -4.5 3.5
      vertex 59.2 -4.5 5.51091e-16
      vertex 59.2 -4.5 3.5
    endloop
  endfacet
  facet normal 0 -1 1.22465e-16
    outer loop
      vertex 61.1 -32.1 3.5
      vertex 5 -32.1 3.5
      vertex 5 -32.1 -3.5
    endloop
  endfacet
  facet normal 0 -1 1.22465e-16
    outer loop
      vertex 61.1 -32.1 -3.5
      vertex 61.1 -32.1 3.5
      vertex 5 -32.1 -3.5
    endloop
  endfacet
  facet normal 1 0 0
    outer loop
      vertex 5 -31.2 7.98954
      vertex 5 -30.0217 8.30527
      vertex 5 -30.2805 9.27119
    endloop
  endfacet
  facet normal 1 0 0
    outer loop
      vertex 5 -33.2 8.5
      vertex 5 -31.2 7.98954
      vertex 5 -33.1586 8.5
    endloop
  endfacet
  facet normal 1 0 0
    outer loop
      vertex 5 -33.1586 8.5
      vertex 5 -31.2 7.98954
      vertex 5 -30.2805 9.27119
    endloop
  endfacet
  facet normal 1 0 0
    outer loop
      vertex 5 -32.1 3.5
      vertex 5 -31.2 3.5
      vertex 5 -31.2 7.98954
    endloop
  endfacet
  facet normal 1 0 0
    outer loop
      vertex 5 -32.1 3.5
      vertex 5 -31.2 7.98954
      vertex 5 -33.2 8.5
    endloop
  endfacet
  facet normal 1 0 0
    outer loop
      vertex 5 -33.2 -3.5
      vertex 5 -32.1 3.5
      vertex 5 -33.2 8.5
    endloop
  endfacet
  facet normal 1 0 0
    outer loop
      vertex 5 -32.1 -3.5
      vertex 5 -32.1 3.5
      vertex 5 -33.2 -3.5
    endloop
  endfacet
  facet normal 0 1 -1.22465e-16
    outer loop
      vertex -5 -31.2 7.98954
      vertex 5 -31.2 7.98954
      vertex -5 -31.2 3.5
    endloop
  endfacet
  facet normal 0 1 -1.22465e-16
    outer loop
      vertex -5 -31.2 3.5
      vertex 5 -31.2 7.98954
      vertex 5 -31.2 3.5
    endloop
  endfacet
  facet normal -1 0 0
    outer loop
      vertex -5 -30.0217 8.30527
      vertex -5 -31.2 7.98954
      vertex -5 -30.2805 9.27119
    endloop
  endfacet
  facet normal -1 0 0
    outer loop
      vertex -5 -32.1 3.5
      vertex -5 -31.2 7.98954
      vertex -5 -31.2 3.5
    endloop
  endfacet
  facet normal -1 0 0
    outer loop
      vertex -5 -33.1586 8.5
      vertex -5 -31.2 7.98954
      vertex -5 -33.2 8.5
    endloop
  endfacet
  facet normal -1 0 0
    outer loop
      vertex -5 -33.2 -3.5
      vertex -5 -32.1 3.5
      vertex -5 -32.1 -3.5
    endloop
  endfacet
  facet normal -1 0 0
    outer loop
      vertex -5 -33.2 8.5
      vertex -5 -32.1 3.5
      vertex -5 -33.2 -3.5
    endloop
  endfacet
  facet normal -1 0 0
    outer loop
      vertex -5 -31.2 7.98954
      vertex -5 -32.1 3.5
      vertex -5 -33.2 8.5
    endloop
  endfacet
  facet normal -1 0 0
    outer loop
      vertex -5 -30.2805 9.27119
      vertex -5 -31.2 7.98954
      vertex -5 -33.1586 8.5
    endloop
  endfacet
  facet normal 0 -1 1.22465e-16
    outer loop
      vertex 5 -33.2 8.5
      vertex -5 -33.2 8.5
      vertex -5 -33.2 -3.5
    endloop
  endfacet
  facet normal 0 -1 1.22465e-16
    outer loop
      vertex 5 -33.2 -3.5
      vertex 5 -33.2 8.5
      vertex -5 -33.2 -3.5
    endloop
  endfacet
  facet normal 0 1 -1.22465e-16
    outer loop
      vertex -5 33.2 8.5
      vertex 5 33.2 8.5
      vertex -5 33.2 -3.5
    endloop
  endfacet
  facet normal 0 1 -1.22465e-16
    outer loop
      vertex -5 33.2 -3.5
      vertex 5 33.2 8.5
      vertex 5 33.2 -3.5
    endloop
  endfacet
  facet normal 0.856952 -0.151104 -0.492748
    outer loop
      vertex -40.5651 8.91042 -3.5
      vertex -39.6303 9.32085 -2
      vertex -39.775 8.5 -2
    endloop
  endfacet
  facet normal 0.856952 -0.151104 -0.492748
    outer loop
      vertex -40.6375 8.5 -3.5
      vertex -40.5651 8.91042 -3.5
      vertex -39.775 8.5 -2
    endloop
  endfacet
  facet normal 0.856952 -0.151104 -0.492748
    outer loop
      vertex -40.3578 10.0861 -3.5
      vertex -39.5473 9.79113 -2
      vertex -39.6303 9.32085 -2
    endloop
  endfacet
  facet normal 0.856952 -0.151104 -0.492748
    outer loop
      vertex -40.5651 8.91042 -3.5
      vertex -40.3578 10.0861 -3.5
      vertex -39.6303 9.32085 -2
    endloop
  endfacet
  facet normal 0.753591 -0.435086 -0.492748
    outer loop
      vertex -40.1494 10.447 -3.5
      vertex -39.1306 10.513 -2
      vertex -39.5473 9.79113 -2
    endloop
  endfacet
  facet normal 0.753591 -0.435086 -0.492748
    outer loop
      vertex -40.3578 10.0861 -3.5
      vertex -40.1494 10.447 -3.5
      vertex -39.5473 9.79113 -2
    endloop
  endfacet
  facet normal 0.753591 -0.435086 -0.492748
    outer loop
      vertex -39.5525 11.4809 -3.5
      vertex -38.8918 10.9265 -2
      vertex -39.1306 10.513 -2
    endloop
  endfacet
  facet normal 0.753591 -0.435086 -0.492748
    outer loop
      vertex -40.1494 10.447 -3.5
      vertex -39.5525 11.4809 -3.5
      vertex -39.1306 10.513 -2
    endloop
  endfacet
  facet normal 0.559336 -0.666591 -0.492748
    outer loop
      vertex -39.2333 11.7488 -3.5
      vertex -38.2533 11.4623 -2
      vertex -38.8918 10.9265 -2
    endloop
  endfacet
  facet normal 0.559336 -0.666591 -0.492748
    outer loop
      vertex -39.5525 11.4809 -3.5
      vertex -39.2333 11.7488 -3.5
      vertex -38.8918 10.9265 -2
    endloop
  endfacet
  facet normal 0.559336 -0.66659 -0.492748
    outer loop
      vertex -38.3187 12.5162 -3.5
      vertex -37.8875 11.7692 -2
      vertex -38.2533 11.4623 -2
    endloop
  endfacet
  facet normal 0.559336 -0.66659 -0.492748
    outer loop
      vertex -39.2333 11.7488 -3.5
      vertex -38.3187 12.5162 -3.5
      vertex -38.2533 11.4623 -2
    endloop
  endfacet
  facet normal 0.297617 -0.817694 -0.492748
    outer loop
      vertex -37.9271 12.6587 -3.5
      vertex -37.1043 12.0543 -2
      vertex -37.8875 11.7692 -2
    endloop
  endfacet
  facet normal 0.297617 -0.817694 -0.492748
    outer loop
      vertex -38.3187 12.5162 -3.5
      vertex -37.9271 12.6587 -3.5
      vertex -37.8875 11.7692 -2
    endloop
  endfacet
  facet normal 0.297616 -0.817694 -0.492748
    outer loop
      vertex -36.8053 13.067 -3.5
      vertex -36.6555 12.2176 -2
      vertex -37.1043 12.0543 -2
    endloop
  endfacet
  facet normal 0.297616 -0.817694 -0.492748
    outer loop
      vertex -37.9271 12.6587 -3.5
      vertex -36.8053 13.067 -3.5
      vertex -37.1043 12.0543 -2
    endloop
  endfacet
  facet normal 0 -0.870172 -0.492748
    outer loop
      vertex -35.1947 13.067 -3.5
      vertex -35.3445 12.2176 -2
      vertex -36.6555 12.2176 -2
    endloop
  endfacet
  facet normal 0 -0.870172 -0.492748
    outer loop
      vertex -36.8053 13.067 -3.5
      vertex -35.1947 13.067 -3.5
      vertex -36.6555 12.2176 -2
    endloop
  endfacet
  facet normal -0.297617 -0.817694 -0.492748
    outer loop
      vertex -35.1947 13.067 -3.5
      vertex -34.8031 12.9245 -3.5
      vertex -34.5612 11.9326 -2
    endloop
  endfacet
  facet normal -0.297617 -0.817694 -0.492748
    outer loop
      vertex -35.3445 12.2176 -2
      vertex -35.1947 13.067 -3.5
      vertex -34.5612 11.9326 -2
    endloop
  endfacet
  facet normal -0.297616 -0.817694 -0.492748
    outer loop
      vertex -33.6812 12.5162 -3.5
      vertex -34.1125 11.7692 -2
      vertex -34.5612 11.9326 -2
    endloop
  endfacet
  facet normal -0.297616 -0.817694 -0.492748
    outer loop
      vertex -34.8031 12.9245 -3.5
      vertex -33.6812 12.5162 -3.5
      vertex -34.5612 11.9326 -2
    endloop
  endfacet
  facet normal -0.559336 -0.666591 -0.492748
    outer loop
      vertex -33.6812 12.5162 -3.5
      vertex -33.362 12.2483 -3.5
      vertex -33.474 11.2335 -2
    endloop
  endfacet
  facet normal -0.559336 -0.666591 -0.492748
    outer loop
      vertex -34.1125 11.7692 -2
      vertex -33.6812 12.5162 -3.5
      vertex -33.474 11.2335 -2
    endloop
  endfacet
  facet normal -0.559336 -0.66659 -0.492748
    outer loop
      vertex -33.362 12.2483 -3.5
      vertex -32.4475 11.4809 -3.5
      vertex -33.1082 10.9265 -2
    endloop
  endfacet
  facet normal -0.559336 -0.66659 -0.492748
    outer loop
      vertex -33.474 11.2335 -2
      vertex -33.362 12.2483 -3.5
      vertex -33.1082 10.9265 -2
    endloop
  endfacet
  facet normal -0.753591 -0.435086 -0.492748
    outer loop
      vertex -32.2391 11.12 -3.5
      vertex -32.6914 10.2047 -2
      vertex -32.4475 11.4809 -3.5
    endloop
  endfacet
  facet normal -0.753591 -0.435086 -0.492748
    outer loop
      vertex -32.4475 11.4809 -3.5
      vertex -32.6914 10.2047 -2
      vertex -33.1082 10.9265 -2
    endloop
  endfacet
  facet normal -0.753591 -0.435086 -0.492748
    outer loop
      vertex -31.6422 10.0861 -3.5
      vertex -32.4527 9.79113 -2
      vertex -32.2391 11.12 -3.5
    endloop
  endfacet
  facet normal -0.753591 -0.435086 -0.492748
    outer loop
      vertex -32.2391 11.12 -3.5
      vertex -32.4527 9.79113 -2
      vertex -32.6914 10.2047 -2
    endloop
  endfacet
  facet normal -0.856952 -0.151104 -0.492748
    outer loop
      vertex -31.5698 9.67569 -3.5
      vertex -32.3079 8.97028 -2
      vertex -31.6422 10.0861 -3.5
    endloop
  endfacet
  facet normal -0.856952 -0.151104 -0.492748
    outer loop
      vertex -31.6422 10.0861 -3.5
      vertex -32.3079 8.97028 -2
      vertex -32.4527 9.79113 -2
    endloop
  endfacet
  facet normal -0.856952 -0.151104 -0.492748
    outer loop
      vertex -31.3625 8.5 -3.5
      vertex -32.225 8.5 -2
      vertex -31.5698 9.67569 -3.5
    endloop
  endfacet
  facet normal -0.856952 -0.151104 -0.492748
    outer loop
      vertex -31.5698 9.67569 -3.5
      vertex -32.225 8.5 -2
      vertex -32.3079 8.97028 -2
    endloop
  endfacet
  facet normal -0.856952 0.151104 -0.492748
    outer loop
      vertex -31.3625 8.5 -3.5
      vertex -31.4349 8.08958 -3.5
      vertex -32.225 8.5 -2
    endloop
  endfacet
  facet normal -0.856952 0.151104 -0.492748
    outer loop
      vertex -32.225 8.5 -2
      vertex -31.4349 8.08958 -3.5
      vertex -32.3697 7.67915 -2
    endloop
  endfacet
  facet normal -0.856952 0.151104 -0.492748
    outer loop
      vertex -31.4349 8.08958 -3.5
      vertex -31.6422 6.91388 -3.5
      vertex -32.3697 7.67915 -2
    endloop
  endfacet
  facet normal -0.856952 0.151104 -0.492748
    outer loop
      vertex -32.3697 7.67915 -2
      vertex -31.6422 6.91388 -3.5
      vertex -32.4527 7.20887 -2
    endloop
  endfacet
  facet normal -0.753591 0.435086 -0.492748
    outer loop
      vertex -31.6422 6.91388 -3.5
      vertex -31.8506 6.55296 -3.5
      vertex -32.4527 7.20887 -2
    endloop
  endfacet
  facet normal -0.753591 0.435086 -0.492748
    outer loop
      vertex -32.4527 7.20887 -2
      vertex -31.8506 6.55296 -3.5
      vertex -32.8694 6.48703 -2
    endloop
  endfacet
  facet normal -0.753591 0.435086 -0.492748
    outer loop
      vertex -31.8506 6.55296 -3.5
      vertex -32.4475 5.51907 -3.5
      vertex -32.8694 6.48703 -2
    endloop
  endfacet
  facet normal -0.753591 0.435086 -0.492748
    outer loop
      vertex -32.8694 6.48703 -2
      vertex -32.4475 5.51907 -3.5
      vertex -33.1082 6.07348 -2
    endloop
  endfacet
  facet normal -0.559336 0.666591 -0.492748
    outer loop
      vertex -32.4475 5.51907 -3.5
      vertex -32.7667 5.25119 -3.5
      vertex -33.1082 6.07348 -2
    endloop
  endfacet
  facet normal -0.559336 0.666591 -0.492748
    outer loop
      vertex -33.1082 6.07348 -2
      vertex -32.7667 5.25119 -3.5
      vertex -33.7467 5.53771 -2
    endloop
  endfacet
  facet normal -0.559336 0.66659 -0.492748
    outer loop
      vertex -32.7667 5.25119 -3.5
      vertex -33.6812 4.48381 -3.5
      vertex -33.7467 5.53771 -2
    endloop
  endfacet
  facet normal -0.559336 0.66659 -0.492748
    outer loop
      vertex -33.7467 5.53771 -2
      vertex -33.6812 4.48381 -3.5
      vertex -34.1125 5.23075 -2
    endloop
  endfacet
  facet normal -0.297617 0.817694 -0.492748
    outer loop
      vertex -33.6812 4.48381 -3.5
      vertex -34.0729 4.34127 -3.5
      vertex -34.1125 5.23075 -2
    endloop
  endfacet
  facet normal -0.297617 0.817694 -0.492748
    outer loop
      vertex -34.1125 5.23075 -2
      vertex -34.0729 4.34127 -3.5
      vertex -34.8957 4.94568 -2
    endloop
  endfacet
  facet normal -0.297616 0.817694 -0.492748
    outer loop
      vertex -34.0729 4.34127 -3.5
      vertex -35.1947 3.93295 -3.5
      vertex -34.8957 4.94568 -2
    endloop
  endfacet
  facet normal -0.297616 0.817694 -0.492748
    outer loop
      vertex -34.8957 4.94568 -2
      vertex -35.1947 3.93295 -3.5
      vertex -35.3445 4.78235 -2
    endloop
  endfacet
  facet normal 0 0.870172 -0.492748
    outer loop
      vertex -35.3445 4.78235 -2
      vertex -35.1947 3.93295 -3.5
      vertex -36.6555 4.78235 -2
    endloop
  endfacet
  facet normal 0 0.870172 -0.492748
    outer loop
      vertex -36.6555 4.78235 -2
      vertex -35.1947 3.93295 -3.5
      vertex -36.8053 3.93295 -3.5
    endloop
  endfacet
  facet normal 0.297617 0.817694 -0.492748
    outer loop
      vertex -36.8053 3.93295 -3.5
      vertex -37.1969 4.07549 -3.5
      vertex -36.6555 4.78235 -2
    endloop
  endfacet
  facet normal 0.297617 0.817694 -0.492748
    outer loop
      vertex -36.6555 4.78235 -2
      vertex -37.1969 4.07549 -3.5
      vertex -37.4388 5.06743 -2
    endloop
  endfacet
  facet normal 0.297616 0.817694 -0.492748
    outer loop
      vertex -37.4388 5.06743 -2
      vertex -37.1969 4.07549 -3.5
      vertex -37.8875 5.23075 -2
    endloop
  endfacet
  facet normal 0.297616 0.817694 -0.492748
    outer loop
      vertex -37.8875 5.23075 -2
      vertex -37.1969 4.07549 -3.5
      vertex -38.3187 4.48381 -3.5
    endloop
  endfacet
  facet normal 0.559336 0.666591 -0.492748
    outer loop
      vertex -37.8875 5.23075 -2
      vertex -38.3187 4.48381 -3.5
      vertex -38.526 5.76652 -2
    endloop
  endfacet
  facet normal 0.559336 0.666591 -0.492748
    outer loop
      vertex -38.526 5.76652 -2
      vertex -38.3187 4.48381 -3.5
      vertex -38.638 4.75169 -3.5
    endloop
  endfacet
  facet normal 0.559336 0.66659 -0.492748
    outer loop
      vertex -38.526 5.76652 -2
      vertex -38.638 4.75169 -3.5
      vertex -38.8918 6.07348 -2
    endloop
  endfacet
  facet normal 0.559336 0.66659 -0.492748
    outer loop
      vertex -38.8918 6.07348 -2
      vertex -38.638 4.75169 -3.5
      vertex -39.5525 5.51907 -3.5
    endloop
  endfacet
  facet normal 0.753591 0.435086 -0.492748
    outer loop
      vertex -39.3086 6.79532 -2
      vertex -38.8918 6.07348 -2
      vertex -39.5525 5.51907 -3.5
    endloop
  endfacet
  facet normal 0.753591 0.435086 -0.492748
    outer loop
      vertex -39.7609 5.87999 -3.5
      vertex -39.3086 6.79532 -2
      vertex -39.5525 5.51907 -3.5
    endloop
  endfacet
  facet normal 0.753591 0.435086 -0.492748
    outer loop
      vertex -39.5473 7.20887 -2
      vertex -39.3086 6.79532 -2
      vertex -39.7609 5.87999 -3.5
    endloop
  endfacet
  facet normal 0.753591 0.435086 -0.492748
    outer loop
      vertex -40.3578 6.91388 -3.5
      vertex -39.5473 7.20887 -2
      vertex -39.7609 5.87999 -3.5
    endloop
  endfacet
  facet normal 0.856952 0.151104 -0.492748
    outer loop
      vertex -39.6921 8.02972 -2
      vertex -39.5473 7.20887 -2
      vertex -40.3578 6.91388 -3.5
    endloop
  endfacet
  facet normal 0.856952 0.151104 -0.492748
    outer loop
      vertex -40.4302 7.32431 -3.5
      vertex -39.6921 8.02972 -2
      vertex -40.3578 6.91388 -3.5
    endloop
  endfacet
  facet normal 0.856952 0.151104 -0.492748
    outer loop
      vertex -39.775 8.5 -2
      vertex -39.6921 8.02972 -2
      vertex -40.4302 7.32431 -3.5
    endloop
  endfacet
  facet normal 0.856952 0.151104 -0.492748
    outer loop
      vertex -40.6375 8.5 -3.5
      vertex -39.775 8.5 -2
      vertex -40.4302 7.32431 -3.5
    endloop
  endfacet
  facet normal 0.856952 -0.151104 -0.492748
    outer loop
      vertex -40.3578 -7.31388 -3.5
      vertex -39.5473 -7.60887 -2
      vertex -39.6303 -8.07915 -2
    endloop
  endfacet
  facet normal 0.856952 -0.151104 -0.492748
    outer loop
      vertex -40.5651 -8.48958 -3.5
      vertex -40.3578 -7.31388 -3.5
      vertex -39.6303 -8.07915 -2
    endloop
  endfacet
  facet normal 0.856952 -0.151104 -0.492748
    outer loop
      vertex -40.5651 -8.48958 -3.5
      vertex -39.6303 -8.07915 -2
      vertex -39.775 -8.9 -2
    endloop
  endfacet
  facet normal 0.856952 -0.151104 -0.492748
    outer loop
      vertex -40.6375 -8.9 -3.5
      vertex -40.5651 -8.48958 -3.5
      vertex -39.775 -8.9 -2
    endloop
  endfacet
  facet normal 0.753591 -0.435086 -0.492748
    outer loop
      vertex -40.1494 -6.95296 -3.5
      vertex -39.1306 -6.88703 -2
      vertex -39.5473 -7.60887 -2
    endloop
  endfacet
  facet normal 0.753591 -0.435086 -0.492748
    outer loop
      vertex -40.3578 -7.31388 -3.5
      vertex -40.1494 -6.95296 -3.5
      vertex -39.5473 -7.60887 -2
    endloop
  endfacet
  facet normal 0.753591 -0.435086 -0.492748
    outer loop
      vertex -39.5525 -5.91907 -3.5
      vertex -38.8918 -6.47348 -2
      vertex -39.1306 -6.88703 -2
    endloop
  endfacet
  facet normal 0.753591 -0.435086 -0.492748
    outer loop
      vertex -40.1494 -6.95296 -3.5
      vertex -39.5525 -5.91907 -3.5
      vertex -39.1306 -6.88703 -2
    endloop
  endfacet
  facet normal 0.559336 -0.666591 -0.492748
    outer loop
      vertex -39.2333 -5.65119 -3.5
      vertex -38.2533 -5.93771 -2
      vertex -38.8918 -6.47348 -2
    endloop
  endfacet
  facet normal 0.559336 -0.666591 -0.492748
    outer loop
      vertex -39.5525 -5.91907 -3.5
      vertex -39.2333 -5.65119 -3.5
      vertex -38.8918 -6.47348 -2
    endloop
  endfacet
  facet normal 0.559336 -0.66659 -0.492748
    outer loop
      vertex -38.3187 -4.88381 -3.5
      vertex -37.8875 -5.63075 -2
      vertex -38.2533 -5.93771 -2
    endloop
  endfacet
  facet normal 0.559336 -0.66659 -0.492748
    outer loop
      vertex -39.2333 -5.65119 -3.5
      vertex -38.3187 -4.88381 -3.5
      vertex -38.2533 -5.93771 -2
    endloop
  endfacet
  facet normal 0.297617 -0.817694 -0.492748
    outer loop
      vertex -37.9271 -4.74127 -3.5
      vertex -37.1043 -5.34568 -2
      vertex -37.8875 -5.63075 -2
    endloop
  endfacet
  facet normal 0.297617 -0.817694 -0.492748
    outer loop
      vertex -38.3187 -4.88381 -3.5
      vertex -37.9271 -4.74127 -3.5
      vertex -37.8875 -5.63075 -2
    endloop
  endfacet
  facet normal 0.297616 -0.817694 -0.492748
    outer loop
      vertex -36.8053 -4.33295 -3.5
      vertex -36.6555 -5.18235 -2
      vertex -37.1043 -5.34568 -2
    endloop
  endfacet
  facet normal 0.297616 -0.817694 -0.492748
    outer loop
      vertex -37.9271 -4.74127 -3.5
      vertex -36.8053 -4.33295 -3.5
      vertex -37.1043 -5.34568 -2
    endloop
  endfacet
  facet normal 0 -0.870172 -0.492748
    outer loop
      vertex -35.1947 -4.33295 -3.5
      vertex -35.3445 -5.18235 -2
      vertex -36.6555 -5.18235 -2
    endloop
  endfacet
  facet normal 0 -0.870172 -0.492748
    outer loop
      vertex -36.8053 -4.33295 -3.5
      vertex -35.1947 -4.33295 -3.5
      vertex -36.6555 -5.18235 -2
    endloop
  endfacet
  facet normal -0.297617 -0.817694 -0.492748
    outer loop
      vertex -35.1947 -4.33295 -3.5
      vertex -34.8031 -4.47549 -3.5
      vertex -34.5612 -5.46743 -2
    endloop
  endfacet
  facet normal -0.297617 -0.817694 -0.492748
    outer loop
      vertex -35.3445 -5.18235 -2
      vertex -35.1947 -4.33295 -3.5
      vertex -34.5612 -5.46743 -2
    endloop
  endfacet
  facet normal -0.297616 -0.817694 -0.492748
    outer loop
      vertex -33.6812 -4.88381 -3.5
      vertex -34.1125 -5.63075 -2
      vertex -34.5612 -5.46743 -2
    endloop
  endfacet
  facet normal -0.297616 -0.817694 -0.492748
    outer loop
      vertex -34.8031 -4.47549 -3.5
      vertex -33.6812 -4.88381 -3.5
      vertex -34.5612 -5.46743 -2
    endloop
  endfacet
  facet normal -0.559336 -0.666591 -0.492748
    outer loop
      vertex -33.6812 -4.88381 -3.5
      vertex -33.362 -5.15169 -3.5
      vertex -33.474 -6.16653 -2
    endloop
  endfacet
  facet normal -0.559336 -0.666591 -0.492748
    outer loop
      vertex -34.1125 -5.63075 -2
      vertex -33.6812 -4.88381 -3.5
      vertex -33.474 -6.16653 -2
    endloop
  endfacet
  facet normal -0.559336 -0.66659 -0.492748
    outer loop
      vertex -33.362 -5.15169 -3.5
      vertex -32.4475 -5.91907 -3.5
      vertex -33.1082 -6.47348 -2
    endloop
  endfacet
  facet normal -0.559336 -0.66659 -0.492748
    outer loop
      vertex -33.474 -6.16653 -2
      vertex -33.362 -5.15169 -3.5
      vertex -33.1082 -6.47348 -2
    endloop
  endfacet
  facet normal -0.753591 -0.435086 -0.492748
    outer loop
      vertex -32.2391 -6.27999 -3.5
      vertex -32.6914 -7.19532 -2
      vertex -32.4475 -5.91907 -3.5
    endloop
  endfacet
  facet normal -0.753591 -0.435086 -0.492748
    outer loop
      vertex -32.4475 -5.91907 -3.5
      vertex -32.6914 -7.19532 -2
      vertex -33.1082 -6.47348 -2
    endloop
  endfacet
  facet normal -0.753591 -0.435086 -0.492748
    outer loop
      vertex -31.6422 -7.31388 -3.5
      vertex -32.4527 -7.60887 -2
      vertex -32.2391 -6.27999 -3.5
    endloop
  endfacet
  facet normal -0.753591 -0.435086 -0.492748
    outer loop
      vertex -32.2391 -6.27999 -3.5
      vertex -32.4527 -7.60887 -2
      vertex -32.6914 -7.19532 -2
    endloop
  endfacet
  facet normal -0.856952 -0.151104 -0.492748
    outer loop
      vertex -31.5698 -7.72431 -3.5
      vertex -32.3079 -8.42972 -2
      vertex -31.6422 -7.31388 -3.5
    endloop
  endfacet
  facet normal -0.856952 -0.151104 -0.492748
    outer loop
      vertex -31.6422 -7.31388 -3.5
      vertex -32.3079 -8.42972 -2
      vertex -32.4527 -7.60887 -2
    endloop
  endfacet
  facet normal -0.856952 -0.151104 -0.492748
    outer loop
      vertex -31.3625 -8.9 -3.5
      vertex -32.225 -8.9 -2
      vertex -31.5698 -7.72431 -3.5
    endloop
  endfacet
  facet normal -0.856952 -0.151104 -0.492748
    outer loop
      vertex -31.5698 -7.72431 -3.5
      vertex -32.225 -8.9 -2
      vertex -32.3079 -8.42972 -2
    endloop
  endfacet
  facet normal -0.856952 0.151104 -0.492748
    outer loop
      vertex -31.3625 -8.9 -3.5
      vertex -31.4349 -9.31042 -3.5
      vertex -32.225 -8.9 -2
    endloop
  endfacet
  facet normal -0.856952 0.151104 -0.492748
    outer loop
      vertex -32.225 -8.9 -2
      vertex -31.4349 -9.31042 -3.5
      vertex -32.3697 -9.72085 -2
    endloop
  endfacet
  facet normal -0.856952 0.151104 -0.492748
    outer loop
      vertex -31.4349 -9.31042 -3.5
      vertex -31.6422 -10.4861 -3.5
      vertex -32.3697 -9.72085 -2
    endloop
  endfacet
  facet normal -0.856952 0.151104 -0.492748
    outer loop
      vertex -32.3697 -9.72085 -2
      vertex -31.6422 -10.4861 -3.5
      vertex -32.4527 -10.1911 -2
    endloop
  endfacet
  facet normal -0.753591 0.435086 -0.492748
    outer loop
      vertex -31.6422 -10.4861 -3.5
      vertex -31.8506 -10.847 -3.5
      vertex -32.4527 -10.1911 -2
    endloop
  endfacet
  facet normal -0.753591 0.435086 -0.492748
    outer loop
      vertex -32.4527 -10.1911 -2
      vertex -31.8506 -10.847 -3.5
      vertex -32.8694 -10.913 -2
    endloop
  endfacet
  facet normal -0.753591 0.435086 -0.492748
    outer loop
      vertex -31.8506 -10.847 -3.5
      vertex -32.4475 -11.8809 -3.5
      vertex -32.8694 -10.913 -2
    endloop
  endfacet
  facet normal -0.753591 0.435086 -0.492748
    outer loop
      vertex -32.8694 -10.913 -2
      vertex -32.4475 -11.8809 -3.5
      vertex -33.1082 -11.3265 -2
    endloop
  endfacet
  facet normal -0.559336 0.666591 -0.492748
    outer loop
      vertex -32.4475 -11.8809 -3.5
      vertex -32.7667 -12.1488 -3.5
      vertex -33.1082 -11.3265 -2
    endloop
  endfacet
  facet normal -0.559336 0.666591 -0.492748
    outer loop
      vertex -33.1082 -11.3265 -2
      vertex -32.7667 -12.1488 -3.5
      vertex -33.7467 -11.8623 -2
    endloop
  endfacet
  facet normal -0.559336 0.66659 -0.492748
    outer loop
      vertex -32.7667 -12.1488 -3.5
      vertex -33.6812 -12.9162 -3.5
      vertex -33.7467 -11.8623 -2
    endloop
  endfacet
  facet normal -0.559336 0.66659 -0.492748
    outer loop
      vertex -33.7467 -11.8623 -2
      vertex -33.6812 -12.9162 -3.5
      vertex -34.1125 -12.1692 -2
    endloop
  endfacet
  facet normal -0.297617 0.817694 -0.492748
    outer loop
      vertex -33.6812 -12.9162 -3.5
      vertex -34.0729 -13.0587 -3.5
      vertex -34.1125 -12.1692 -2
    endloop
  endfacet
  facet normal -0.297617 0.817694 -0.492748
    outer loop
      vertex -34.1125 -12.1692 -2
      vertex -34.0729 -13.0587 -3.5
      vertex -34.8957 -12.4543 -2
    endloop
  endfacet
  facet normal -0.297616 0.817694 -0.492748
    outer loop
      vertex -34.0729 -13.0587 -3.5
      vertex -35.1947 -13.467 -3.5
      vertex -34.8957 -12.4543 -2
    endloop
  endfacet
  facet normal -0.297616 0.817694 -0.492748
    outer loop
      vertex -34.8957 -12.4543 -2
      vertex -35.1947 -13.467 -3.5
      vertex -35.3445 -12.6176 -2
    endloop
  endfacet
  facet normal 0 0.870172 -0.492748
    outer loop
      vertex -35.3445 -12.6176 -2
      vertex -35.1947 -13.467 -3.5
      vertex -36.6555 -12.6176 -2
    endloop
  endfacet
  facet normal 0 0.870172 -0.492748
    outer loop
      vertex -36.6555 -12.6176 -2
      vertex -35.1947 -13.467 -3.5
      vertex -36.8053 -13.467 -3.5
    endloop
  endfacet
  facet normal 0.297617 0.817694 -0.492748
    outer loop
      vertex -36.8053 -13.467 -3.5
      vertex -37.1969 -13.3245 -3.5
      vertex -36.6555 -12.6176 -2
    endloop
  endfacet
  facet normal 0.297617 0.817694 -0.492748
    outer loop
      vertex -36.6555 -12.6176 -2
      vertex -37.1969 -13.3245 -3.5
      vertex -37.4388 -12.3326 -2
    endloop
  endfacet
  facet normal 0.297616 0.817694 -0.492748
    outer loop
      vertex -37.4388 -12.3326 -2
      vertex -37.1969 -13.3245 -3.5
      vertex -37.8875 -12.1692 -2
    endloop
  endfacet
  facet normal 0.297616 0.817694 -0.492748
    outer loop
      vertex -37.8875 -12.1692 -2
      vertex -37.1969 -13.3245 -3.5
      vertex -38.3187 -12.9162 -3.5
    endloop
  endfacet
  facet normal 0.559336 0.666591 -0.492748
    outer loop
      vertex -37.8875 -12.1692 -2
      vertex -38.3187 -12.9162 -3.5
      vertex -38.526 -11.6335 -2
    endloop
  endfacet
  facet normal 0.559336 0.666591 -0.492748
    outer loop
      vertex -38.526 -11.6335 -2
      vertex -38.3187 -12.9162 -3.5
      vertex -38.638 -12.6483 -3.5
    endloop
  endfacet
  facet normal 0.559336 0.66659 -0.492748
    outer loop
      vertex -38.526 -11.6335 -2
      vertex -38.638 -12.6483 -3.5
      vertex -38.8918 -11.3265 -2
    endloop
  endfacet
  facet normal 0.559336 0.66659 -0.492748
    outer loop
      vertex -38.8918 -11.3265 -2
      vertex -38.638 -12.6483 -3.5
      vertex -39.5525 -11.8809 -3.5
    endloop
  endfacet
  facet normal 0.753591 0.435086 -0.492748
    outer loop
      vertex -39.3086 -10.6047 -2
      vertex -38.8918 -11.3265 -2
      vertex -39.5525 -11.8809 -3.5
    endloop
  endfacet
  facet normal 0.753591 0.435086 -0.492748
    outer loop
      vertex -39.7609 -11.52 -3.5
      vertex -39.3086 -10.6047 -2
      vertex -39.5525 -11.8809 -3.5
    endloop
  endfacet
  facet normal 0.753591 0.435086 -0.492748
    outer loop
      vertex -39.5473 -10.1911 -2
      vertex -39.3086 -10.6047 -2
      vertex -39.7609 -11.52 -3.5
    endloop
  endfacet
  facet normal 0.753591 0.435086 -0.492748
    outer loop
      vertex -40.3578 -10.4861 -3.5
      vertex -39.5473 -10.1911 -2
      vertex -39.7609 -11.52 -3.5
    endloop
  endfacet
  facet normal 0.856952 0.151104 -0.492748
    outer loop
      vertex -39.6921 -9.37028 -2
      vertex -39.5473 -10.1911 -2
      vertex -40.3578 -10.4861 -3.5
    endloop
  endfacet
  facet normal 0.856952 0.151104 -0.492748
    outer loop
      vertex -40.4302 -10.0757 -3.5
      vertex -39.6921 -9.37028 -2
      vertex -40.3578 -10.4861 -3.5
    endloop
  endfacet
  facet normal 0.856952 0.151104 -0.492748
    outer loop
      vertex -39.775 -8.9 -2
      vertex -39.6921 -9.37028 -2
      vertex -40.4302 -10.0757 -3.5
    endloop
  endfacet
  facet normal 0.856952 0.151104 -0.492748
    outer loop
      vertex -40.6375 -8.9 -3.5
      vertex -39.775 -8.9 -2
      vertex -40.4302 -10.0757 -3.5
    endloop
  endfacet
  facet normal 1 0 0
    outer loop
      vertex 13.15 -18.5 -2
      vertex 13.15 -18.5 -3.5
      vertex 13.15 18.5 -3.5
    endloop
  endfacet
  facet normal 1 0 0
    outer loop
      vertex 13.15 18.5 -2
      vertex 13.15 -18.5 -2
      vertex 13.15 18.5 -3.5
    endloop
  endfacet
  facet normal 0 -1 1.22465e-16
    outer loop
      vertex 13.15 18.5 -3.5
      vertex 24.85 18.5 -3.5
      vertex 24.85 18.5 -2
    endloop
  endfacet
  facet normal 0 -1 1.22465e-16
    outer loop
      vertex 13.15 18.5 -2
      vertex 13.15 18.5 -3.5
      vertex 24.85 18.5 -2
    endloop
  endfacet
  facet normal -1 0 0
    outer loop
      vertex 24.85 -18.5 -3.5
      vertex 24.85 -18.5 -2
      vertex 24.85 18.5 -3.5
    endloop
  endfacet
  facet normal -1 0 0
    outer loop
      vertex 24.85 18.5 -3.5
      vertex 24.85 -18.5 -2
      vertex 24.85 18.5 -2
    endloop
  endfacet
  facet normal 0 1 -1.22465e-16
    outer loop
      vertex 24.85 -18.5 -3.5
      vertex 13.15 -18.5 -3.5
      vertex 24.85 -18.5 -2
    endloop
  endfacet
  facet normal 0 1 -1.22465e-16
    outer loop
      vertex 24.85 -18.5 -2
      vertex 13.15 -18.5 -3.5
      vertex 13.15 -18.5 -2
    endloop
  endfacet
  facet normal 0 1.22465e-16 1
    outer loop
      vertex 5 33.2 8.5
      vertex -5 33.2 8.5
      vertex -5 33.1586 8.5
    endloop
  endfacet
  facet normal 0 1.22465e-16 1
    outer loop
      vertex 5 33.1586 8.5
      vertex 5 33.2 8.5
      vertex -5 33.1586 8.5
    endloop
  endfacet
  facet normal 0 0.258819 0.965926
    outer loop
      vertex 5 33.1586 8.5
      vertex -5 33.1586 8.5
      vertex -5 30.2805 9.27119
    endloop
  endfacet
  facet normal 0 0.258819 0.965926
    outer loop
      vertex 5 30.2805 9.27119
      vertex 5 33.1586 8.5
      vertex -5 30.2805 9.27119
    endloop
  endfacet
  facet normal 0 -0.965926 0.258819
    outer loop
      vertex 5 30.2805 9.27119
      vertex -5 30.2805 9.27119
      vertex -5 30.0217 8.30527
    endloop
  endfacet
  facet normal 0 -0.965926 0.258819
    outer loop
      vertex 5 30.0217 8.30527
      vertex 5 30.2805 9.27119
      vertex -5 30.0217 8.30527
    endloop
  endfacet
  facet normal 0 -0.258819 -0.965926
    outer loop
      vertex -5 31.2 7.98954
      vertex 5 31.2 7.98954
      vertex -5 30.0217 8.30527
    endloop
  endfacet
  facet normal 0 -0.258819 -0.965926
    outer loop
      vertex -5 30.0217 8.30527
      vertex 5 31.2 7.98954
      vertex 5 30.0217 8.30527
    endloop
  endfacet
  facet normal 0 1.22465e-16 1
    outer loop
      vertex 59.2 -4.5 5.51091e-16
      vertex 61.1 -4.5 5.51091e-16
      vertex 61.1 4.5 -5.51091e-16
    endloop
  endfacet
  facet normal 0 1.22465e-16 1
    outer loop
      vertex 59.2 4.5 -5.51091e-16
      vertex 59.2 -4.5 5.51091e-16
      vertex 61.1 4.5 -5.51091e-16
    endloop
  endfacet
  facet normal 0 1.22465e-16 1
    outer loop
      vertex 24.85 -18.5 -2
      vertex 59.2 -30.2 -2
      vertex 59.2 30.2 -2
    endloop
  endfacet
  facet normal 0 1.22465e-16 1
    outer loop
      vertex -59.2 30.2 -2
      vertex -59.2 -30.2 -2
      vertex -39.775 8.5 -2
    endloop
  endfacet
  facet normal 0 1.22465e-16 1
    outer loop
      vertex -32.6914 10.2047 -2
      vertex -32.4527 9.79113 -2
      vertex 59.2 30.2 -2
    endloop
  endfacet
  facet normal 0 1.22465e-16 1
    outer loop
      vertex -59.2 30.2 -2
      vertex -39.775 8.5 -2
      vertex -39.6303 9.32085 -2
    endloop
  endfacet
  facet normal 0 1.22465e-16 1
    outer loop
      vertex -33.1082 10.9265 -2
      vertex -32.6914 10.2047 -2
      vertex 59.2 30.2 -2
    endloop
  endfacet
  facet normal 0 1.22465e-16 1
    outer loop
      vertex -59.2 30.2 -2
      vertex -39.6303 9.32085 -2
      vertex -39.5473 9.79113 -2
    endloop
  endfacet
  facet normal 0 1.22465e-16 1
    outer loop
      vertex -33.474 11.2335 -2
      vertex -33.1082 10.9265 -2
      vertex 59.2 30.2 -2
    endloop
  endfacet
  facet normal 0 1.22465e-16 1
    outer loop
      vertex -59.2 30.2 -2
      vertex -39.5473 9.79113 -2
      vertex -39.1306 10.513 -2
    endloop
  endfacet
  facet normal 0 1.22465e-16 1
    outer loop
      vertex -34.1125 11.7692 -2
      vertex -33.474 11.2335 -2
      vertex 59.2 30.2 -2
    endloop
  endfacet
  facet normal 0 1.22465e-16 1
    outer loop
      vertex -59.2 30.2 -2
      vertex -39.1306 10.513 -2
      vertex -38.8918 10.9265 -2
    endloop
  endfacet
  facet normal 0 1.22465e-16 1
    outer loop
      vertex -34.5612 11.9326 -2
      vertex -34.1125 11.7692 -2
      vertex 59.2 30.2 -2
    endloop
  endfacet
  facet normal 0 1.22465e-16 1
    outer loop
      vertex -59.2 30.2 -2
      vertex -38.8918 10.9265 -2
      vertex -38.2533 11.4623 -2
    endloop
  endfacet
  facet normal 0 1.22465e-16 1
    outer loop
      vertex -35.3445 12.2176 -2
      vertex -34.5612 11.9326 -2
      vertex 59.2 30.2 -2
    endloop
  endfacet
  facet normal 0 1.22465e-16 1
    outer loop
      vertex -59.2 30.2 -2
      vertex -38.2533 11.4623 -2
      vertex -37.8875 11.7692 -2
    endloop
  endfacet
  facet normal 0 1.22465e-16 1
    outer loop
      vertex -33.1082 6.07348 -2
      vertex -33.7467 5.53771 -2
      vertex -59.2 -30.2 -2
    endloop
  endfacet
  facet normal 0 1.22465e-16 1
    outer loop
      vertex -59.2 30.2 -2
      vertex -37.8875 11.7692 -2
      vertex -37.1043 12.0543 -2
    endloop
  endfacet
  facet normal 0 1.22465e-16 1
    outer loop
      vertex -59.2 30.2 -2
      vertex -36.6555 12.2176 -2
      vertex 59.2 30.2 -2
    endloop
  endfacet
  facet normal 0 1.22465e-16 1
    outer loop
      vertex -59.2 30.2 -2
      vertex -37.1043 12.0543 -2
      vertex -36.6555 12.2176 -2
    endloop
  endfacet
  facet normal 0 1.22465e-16 1
    outer loop
      vertex -32.4527 9.79113 -2
      vertex -32.3079 8.97028 -2
      vertex 59.2 30.2 -2
    endloop
  endfacet
  facet normal 0 1.22465e-16 1
    outer loop
      vertex -32.3079 8.97028 -2
      vertex -32.225 8.5 -2
      vertex 59.2 30.2 -2
    endloop
  endfacet
  facet normal 0 1.22465e-16 1
    outer loop
      vertex -32.225 8.5 -2
      vertex -32.3697 7.67915 -2
      vertex 59.2 30.2 -2
    endloop
  endfacet
  facet normal 0 1.22465e-16 1
    outer loop
      vertex -32.3697 7.67915 -2
      vertex -32.4527 7.20887 -2
      vertex 59.2 30.2 -2
    endloop
  endfacet
  facet normal 0 1.22465e-16 1
    outer loop
      vertex -33.7467 5.53771 -2
      vertex -34.1125 5.23075 -2
      vertex -59.2 -30.2 -2
    endloop
  endfacet
  facet normal 0 1.22465e-16 1
    outer loop
      vertex 24.85 18.5 -2
      vertex 24.85 -18.5 -2
      vertex 59.2 30.2 -2
    endloop
  endfacet
  facet normal 0 1.22465e-16 1
    outer loop
      vertex -38.8918 -6.47348 -2
      vertex -38.2533 -5.93771 -2
      vertex -33.1082 6.07348 -2
    endloop
  endfacet
  facet normal 0 1.22465e-16 1
    outer loop
      vertex -34.1125 5.23075 -2
      vertex -34.8957 4.94568 -2
      vertex -59.2 -30.2 -2
    endloop
  endfacet
  facet normal 0 1.22465e-16 1
    outer loop
      vertex -34.8957 4.94568 -2
      vertex -35.3445 4.78235 -2
      vertex -59.2 -30.2 -2
    endloop
  endfacet
  facet normal 0 1.22465e-16 1
    outer loop
      vertex -35.3445 4.78235 -2
      vertex -36.6555 4.78235 -2
      vertex -59.2 -30.2 -2
    endloop
  endfacet
  facet normal 0 1.22465e-16 1
    outer loop
      vertex -37.4388 5.06743 -2
      vertex -59.2 -30.2 -2
      vertex -36.6555 4.78235 -2
    endloop
  endfacet
  facet normal 0 1.22465e-16 1
    outer loop
      vertex -37.8875 5.23075 -2
      vertex -59.2 -30.2 -2
      vertex -37.4388 5.06743 -2
    endloop
  endfacet
  facet normal 0 1.22465e-16 1
    outer loop
      vertex -38.526 5.76652 -2
      vertex -59.2 -30.2 -2
      vertex -37.8875 5.23075 -2
    endloop
  endfacet
  facet normal 0 1.22465e-16 1
    outer loop
      vertex -38.8918 6.07348 -2
      vertex -59.2 -30.2 -2
      vertex -38.526 5.76652 -2
    endloop
  endfacet
  facet normal 0 1.22465e-16 1
    outer loop
      vertex -39.3086 6.79532 -2
      vertex -59.2 -30.2 -2
      vertex -38.8918 6.07348 -2
    endloop
  endfacet
  facet normal 0 1.22465e-16 1
    outer loop
      vertex -39.5473 7.20887 -2
      vertex -59.2 -30.2 -2
      vertex -39.3086 6.79532 -2
    endloop
  endfacet
  facet normal 0 1.22465e-16 1
    outer loop
      vertex -39.6921 8.02972 -2
      vertex -59.2 -30.2 -2
      vertex -39.5473 7.20887 -2
    endloop
  endfacet
  facet normal 0 1.22465e-16 1
    outer loop
      vertex -39.775 8.5 -2
      vertex -59.2 -30.2 -2
      vertex -39.6921 8.02972 -2
    endloop
  endfacet
  facet normal 0 1.22465e-16 1
    outer loop
      vertex -39.6303 -8.07915 -2
      vertex -59.2 -30.2 -2
      vertex -39.775 -8.9 -2
    endloop
  endfacet
  facet normal 0 1.22465e-16 1
    outer loop
      vertex -39.5473 -7.60887 -2
      vertex -59.2 -30.2 -2
      vertex -39.6303 -8.07915 -2
    endloop
  endfacet
  facet normal 0 1.22465e-16 1
    outer loop
      vertex -33.1082 6.07348 -2
      vertex -59.2 -30.2 -2
      vertex -39.5473 -7.60887 -2
    endloop
  endfacet
  facet normal 0 1.22465e-16 1
    outer loop
      vertex -33.1082 6.07348 -2
      vertex -39.5473 -7.60887 -2
      vertex -39.1306 -6.88703 -2
    endloop
  endfacet
  facet normal 0 1.22465e-16 1
    outer loop
      vertex -34.1125 -12.1692 -2
      vertex -34.8957 -12.4543 -2
      vertex -59.2 -30.2 -2
    endloop
  endfacet
  facet normal 0 1.22465e-16 1
    outer loop
      vertex -33.1082 6.07348 -2
      vertex -39.1306 -6.88703 -2
      vertex -38.8918 -6.47348 -2
    endloop
  endfacet
  facet normal 0 1.22465e-16 1
    outer loop
      vertex -33.1082 6.07348 -2
      vertex -38.2533 -5.93771 -2
      vertex -37.8875 -5.63075 -2
    endloop
  endfacet
  facet normal 0 1.22465e-16 1
    outer loop
      vertex 13.15 18.5 -2
      vertex 24.85 18.5 -2
      vertex 59.2 30.2 -2
    endloop
  endfacet
  facet normal 0 1.22465e-16 1
    outer loop
      vertex -37.4388 -12.3326 -2
      vertex -37.8875 -12.1692 -2
      vertex -59.2 -30.2 -2
    endloop
  endfacet
  facet normal 0 1.22465e-16 1
    outer loop
      vertex -34.8957 -12.4543 -2
      vertex -35.3445 -12.6176 -2
      vertex -59.2 -30.2 -2
    endloop
  endfacet
  facet normal 0 1.22465e-16 1
    outer loop
      vertex -35.3445 -12.6176 -2
      vertex -36.6555 -12.6176 -2
      vertex -59.2 -30.2 -2
    endloop
  endfacet
  facet normal 0 1.22465e-16 1
    outer loop
      vertex -36.6555 -12.6176 -2
      vertex -37.4388 -12.3326 -2
      vertex -59.2 -30.2 -2
    endloop
  endfacet
  facet normal 0 1.22465e-16 1
    outer loop
      vertex -37.8875 -12.1692 -2
      vertex -38.526 -11.6335 -2
      vertex -59.2 -30.2 -2
    endloop
  endfacet
  facet normal 0 1.22465e-16 1
    outer loop
      vertex -38.526 -11.6335 -2
      vertex -38.8918 -11.3265 -2
      vertex -59.2 -30.2 -2
    endloop
  endfacet
  facet normal 0 1.22465e-16 1
    outer loop
      vertex -39.3086 -10.6047 -2
      vertex -59.2 -30.2 -2
      vertex -38.8918 -11.3265 -2
    endloop
  endfacet
  facet normal 0 1.22465e-16 1
    outer loop
      vertex -39.5473 -10.1911 -2
      vertex -59.2 -30.2 -2
      vertex -39.3086 -10.6047 -2
    endloop
  endfacet
  facet normal 0 1.22465e-16 1
    outer loop
      vertex -39.6921 -9.37028 -2
      vertex -59.2 -30.2 -2
      vertex -39.5473 -10.1911 -2
    endloop
  endfacet
  facet normal 0 1.22465e-16 1
    outer loop
      vertex -39.775 -8.9 -2
      vertex -59.2 -30.2 -2
      vertex -39.6921 -9.37028 -2
    endloop
  endfacet
  facet normal 0 1.22465e-16 1
    outer loop
      vertex -32.4527 7.20887 -2
      vertex 13.15 18.5 -2
      vertex 59.2 30.2 -2
    endloop
  endfacet
  facet normal 0 1.22465e-16 1
    outer loop
      vertex -32.4527 7.20887 -2
      vertex -32.8694 6.48703 -2
      vertex 13.15 18.5 -2
    endloop
  endfacet
  facet normal 0 1.22465e-16 1
    outer loop
      vertex -59.2 -30.2 -2
      vertex 59.2 -30.2 -2
      vertex 24.85 -18.5 -2
    endloop
  endfacet
  facet normal 0 1.22465e-16 1
    outer loop
      vertex -59.2 -30.2 -2
      vertex 24.85 -18.5 -2
      vertex 13.15 -18.5 -2
    endloop
  endfacet
  facet normal 0 1.22465e-16 1
    outer loop
      vertex -36.6555 12.2176 -2
      vertex -35.3445 12.2176 -2
      vertex 59.2 30.2 -2
    endloop
  endfacet
  facet normal 0 1.22465e-16 1
    outer loop
      vertex 13.15 -18.5 -2
      vertex -34.1125 -12.1692 -2
      vertex -59.2 -30.2 -2
    endloop
  endfacet
  facet normal 0 1.22465e-16 1
    outer loop
      vertex 13.15 -18.5 -2
      vertex -33.7467 -11.8623 -2
      vertex -34.1125 -12.1692 -2
    endloop
  endfacet
  facet normal 0 1.22465e-16 1
    outer loop
      vertex 13.15 -18.5 -2
      vertex -33.1082 -11.3265 -2
      vertex -33.7467 -11.8623 -2
    endloop
  endfacet
  facet normal 0 1.22465e-16 1
    outer loop
      vertex 13.15 -18.5 -2
      vertex -32.8694 -10.913 -2
      vertex -33.1082 -11.3265 -2
    endloop
  endfacet
  facet normal 0 1.22465e-16 1
    outer loop
      vertex 13.15 -18.5 -2
      vertex -32.4527 -10.1911 -2
      vertex -32.8694 -10.913 -2
    endloop
  endfacet
  facet normal 0 1.22465e-16 1
    outer loop
      vertex 13.15 -18.5 -2
      vertex -32.3697 -9.72085 -2
      vertex -32.4527 -10.1911 -2
    endloop
  endfacet
  facet normal 0 1.22465e-16 1
    outer loop
      vertex 13.15 -18.5 -2
      vertex -32.225 -8.9 -2
      vertex -32.3697 -9.72085 -2
    endloop
  endfacet
  facet normal 0 1.22465e-16 1
    outer loop
      vertex 13.15 -18.5 -2
      vertex -32.3079 -8.42972 -2
      vertex -32.225 -8.9 -2
    endloop
  endfacet
  facet normal 0 1.22465e-16 1
    outer loop
      vertex 13.15 -18.5 -2
      vertex -32.4527 -7.60887 -2
      vertex -32.3079 -8.42972 -2
    endloop
  endfacet
  facet normal 0 1.22465e-16 1
    outer loop
      vertex 13.15 -18.5 -2
      vertex -32.6914 -7.19532 -2
      vertex -32.4527 -7.60887 -2
    endloop
  endfacet
  facet normal 0 1.22465e-16 1
    outer loop
      vertex 13.15 -18.5 -2
      vertex -33.1082 -6.47348 -2
      vertex -32.6914 -7.19532 -2
    endloop
  endfacet
  facet normal 0 1.22465e-16 1
    outer loop
      vertex 13.15 -18.5 -2
      vertex -33.474 -6.16653 -2
      vertex -33.1082 -6.47348 -2
    endloop
  endfacet
  facet normal 0 1.22465e-16 1
    outer loop
      vertex 13.15 -18.5 -2
      vertex -34.1125 -5.63075 -2
      vertex -33.474 -6.16653 -2
    endloop
  endfacet
  facet normal 0 1.22465e-16 1
    outer loop
      vertex 13.15 -18.5 -2
      vertex -34.5612 -5.46743 -2
      vertex -34.1125 -5.63075 -2
    endloop
  endfacet
  facet normal 0 1.22465e-16 1
    outer loop
      vertex 13.15 -18.5 -2
      vertex -35.3445 -5.18235 -2
      vertex -34.5612 -5.46743 -2
    endloop
  endfacet
  facet normal 0 1.22465e-16 1
    outer loop
      vertex -37.1043 -5.34568 -2
      vertex -33.1082 6.07348 -2
      vertex -37.8875 -5.63075 -2
    endloop
  endfacet
  facet normal 0 1.22465e-16 1
    outer loop
      vertex -36.6555 -5.18235 -2
      vertex -33.1082 6.07348 -2
      vertex -37.1043 -5.34568 -2
    endloop
  endfacet
  facet normal 0 1.22465e-16 1
    outer loop
      vertex -35.3445 -5.18235 -2
      vertex -33.1082 6.07348 -2
      vertex -36.6555 -5.18235 -2
    endloop
  endfacet
  facet normal 0 1.22465e-16 1
    outer loop
      vertex 13.15 -18.5 -2
      vertex -33.1082 6.07348 -2
      vertex -35.3445 -5.18235 -2
    endloop
  endfacet
  facet normal 0 1.22465e-16 1
    outer loop
      vertex 13.15 -18.5 -2
      vertex -32.8694 6.48703 -2
      vertex -33.1082 6.07348 -2
    endloop
  endfacet
  facet normal 0 1.22465e-16 1
    outer loop
      vertex 13.15 -18.5 -2
      vertex 13.15 18.5 -2
      vertex -32.8694 6.48703 -2
    endloop
  endfacet
  facet normal 0 0.258819 -0.965926
    outer loop
      vertex -5 -30.0217 8.30527
      vertex 5 -30.0217 8.30527
      vertex -5 -31.2 7.98954
    endloop
  endfacet
  facet normal 0 0.258819 -0.965926
    outer loop
      vertex -5 -31.2 7.98954
      vertex 5 -30.0217 8.30527
      vertex 5 -31.2 7.98954
    endloop
  endfacet
  facet normal 0 1.22465e-16 1
    outer loop
      vertex 5 -33.1586 8.5
      vertex -5 -33.1586 8.5
      vertex -5 -33.2 8.5
    endloop
  endfacet
  facet normal 0 1.22465e-16 1
    outer loop
      vertex 5 -33.2 8.5
      vertex 5 -33.1586 8.5
      vertex -5 -33.2 8.5
    endloop
  endfacet
  facet normal 0 -0.258819 0.965926
    outer loop
      vertex 5 -30.2805 9.27119
      vertex -5 -30.2805 9.27119
      vertex -5 -33.1586 8.5
    endloop
  endfacet
  facet normal 0 -0.258819 0.965926
    outer loop
      vertex 5 -33.1586 8.5
      vertex 5 -30.2805 9.27119
      vertex -5 -33.1586 8.5
    endloop
  endfacet
  facet normal 0 0.965926 0.258819
    outer loop
      vertex -5 -30.0217 8.30527
      vertex -5 -30.2805 9.27119
      vertex 5 -30.0217 8.30527
    endloop
  endfacet
  facet normal 0 0.965926 0.258819
    outer loop
      vertex 5 -30.0217 8.30527
      vertex -5 -30.2805 9.27119
      vertex 5 -30.2805 9.27119
    endloop
  endfacet
endsolid OpenSCAD_Model
