solid OpenSCAD_Model
  facet normal -1 0 0
    outer loop
      vertex -59 -30 -10.5
      vertex -59 -30 10.5
      vertex -59 30 -10.5
    endloop
  endfacet
  facet normal -1 0 0
    outer loop
      vertex -59 30 -10.5
      vertex -59 -30 10.5
      vertex -59 30 10.5
    endloop
  endfacet
  facet normal 0 -1 0
    outer loop
      vertex -5 -30 0.679759
      vertex -59 -30 -10.5
      vertex 59 -30 -10.5
    endloop
  endfacet
  facet normal 0 -1 0
    outer loop
      vertex -5 -30 0.679759
      vertex -5 -30 5.0635
      vertex -59 -30 10.5
    endloop
  endfacet
  facet normal 0 -1 0
    outer loop
      vertex -59 -30 10.5
      vertex -59 -30 -10.5
      vertex -5 -30 0.679759
    endloop
  endfacet
  facet normal 0 -1 0
    outer loop
      vertex 59 -30 10.5
      vertex -59 -30 10.5
      vertex -5 -30 5.0635
    endloop
  endfacet
  facet normal 0 -1 0
    outer loop
      vertex 59 -30 10.5
      vertex 5 -30 5.0635
      vertex 59 -30 -10.5
    endloop
  endfacet
  facet normal 0 -1 0
    outer loop
      vertex 59 -30 10.5
      vertex -5 -30 5.0635
      vertex 5 -30 5.0635
    endloop
  endfacet
  facet normal 0 -1 0
    outer loop
      vertex 5 -30 5.0635
      vertex 5 -30 0.679759
      vertex 59 -30 -10.5
    endloop
  endfacet
  facet normal 0 -1 0
    outer loop
      vertex 5 -30 0.679759
      vertex -5 -30 0.679759
      vertex 59 -30 -10.5
    endloop
  endfacet
  facet normal 0 0 -1
    outer loop
      vertex -59 -30 -10.5
      vertex -59 30 -10.5
      vertex 59 -30 -10.5
    endloop
  endfacet
  facet normal 0 0 -1
    outer loop
      vertex 59 -30 -10.5
      vertex -59 30 -10.5
      vertex 59 30 -10.5
    endloop
  endfacet
  facet normal 0 1 0
    outer loop
      vertex 5 30 5.0635
      vertex 59 30 -10.5
      vertex 5 30 0.679759
    endloop
  endfacet
  facet normal 0 1 0
    outer loop
      vertex -5 30 5.0635
      vertex -59 30 10.5
      vertex 59 30 10.5
    endloop
  endfacet
  facet normal 0 1 0
    outer loop
      vertex 5 30 5.0635
      vertex -5 30 5.0635
      vertex 59 30 10.5
    endloop
  endfacet
  facet normal 0 1 0
    outer loop
      vertex -59 30 -10.5
      vertex -59 30 10.5
      vertex -5 30 0.679759
    endloop
  endfacet
  facet normal 0 1 0
    outer loop
      vertex -59 30 -10.5
      vertex -5 30 0.679759
      vertex 59 30 -10.5
    endloop
  endfacet
  facet normal 0 1 0
    outer loop
      vertex 59 30 -10.5
      vertex 5 30 5.0635
      vertex 59 30 10.5
    endloop
  endfacet
  facet normal 0 1 0
    outer loop
      vertex -5 30 0.679759
      vertex -59 30 10.5
      vertex -5 30 5.0635
    endloop
  endfacet
  facet normal 0 1 0
    outer loop
      vertex 5 30 0.679759
      vertex 59 30 -10.5
      vertex -5 30 0.679759
    endloop
  endfacet
  facet normal 0 0 1
    outer loop
      vertex -57 -28 10.5
      vertex -59 -30 10.5
      vertex 59 -30 10.5
    endloop
  endfacet
  facet normal 0 0 1
    outer loop
      vertex 57 4.5 10.5
      vertex 59 4.5 10.5
      vertex 57 28 10.5
    endloop
  endfacet
  facet normal 0 0 1
    outer loop
      vertex 59 -4.5 10.5
      vertex 57 -4.5 10.5
      vertex 59 -30 10.5
    endloop
  endfacet
  facet normal 0 0 1
    outer loop
      vertex 57 -4.5 10.5
      vertex 57 -28 10.5
      vertex 59 -30 10.5
    endloop
  endfacet
  facet normal 0 0 1
    outer loop
      vertex -59 30 10.5
      vertex -59 -30 10.5
      vertex -57 -28 10.5
    endloop
  endfacet
  facet normal 0 0 1
    outer loop
      vertex -59 30 10.5
      vertex -57 -28 10.5
      vertex -57 28 10.5
    endloop
  endfacet
  facet normal 0 0 1
    outer loop
      vertex 59 30 10.5
      vertex -59 30 10.5
      vertex 57 28 10.5
    endloop
  endfacet
  facet normal 0 0 1
    outer loop
      vertex 59 30 10.5
      vertex 57 28 10.5
      vertex 59 4.5 10.5
    endloop
  endfacet
  facet normal 0 0 1
    outer loop
      vertex 57 -28 10.5
      vertex -57 -28 10.5
      vertex 59 -30 10.5
    endloop
  endfacet
  facet normal 0 0 1
    outer loop
      vertex -57 28 10.5
      vertex 57 28 10.5
      vertex -59 30 10.5
    endloop
  endfacet
  facet normal 1 0 0
    outer loop
      vertex 59 -4.5 0.25
      vertex 59 -30 -10.5
      vertex 59 30 -10.5
    endloop
  endfacet
  facet normal 1 0 0
    outer loop
      vertex 59 -4.5 0.25
      vertex 59 -4.5 10.5
      vertex 59 -30 10.5
    endloop
  endfacet
  facet normal 1 0 0
    outer loop
      vertex 59 30 10.5
      vertex 59 4.5 10.5
      vertex 59 30 -10.5
    endloop
  endfacet
  facet normal 1 0 0
    outer loop
      vertex 59 4.5 10.5
      vertex 59 4.5 0.25
      vertex 59 30 -10.5
    endloop
  endfacet
  facet normal 1 0 0
    outer loop
      vertex 59 -30 10.5
      vertex 59 -30 -10.5
      vertex 59 -4.5 0.25
    endloop
  endfacet
  facet normal 1 0 0
    outer loop
      vertex 59 4.5 0.25
      vertex 59 -4.5 0.25
      vertex 59 30 -10.5
    endloop
  endfacet
  facet normal 0 -0.258819 -0.965926
    outer loop
      vertex -5 -31.0959 0.973414
      vertex -5 -30 0.679759
      vertex 5 -31.0959 0.973414
    endloop
  endfacet
  facet normal 0 -0.258819 -0.965926
    outer loop
      vertex 5 -31.0959 0.973414
      vertex -5 -30 0.679759
      vertex 5 -30 0.679759
    endloop
  endfacet
  facet normal -1 0 0
    outer loop
      vertex -5 -30 0.679759
      vertex -5 -31.0959 0.973414
      vertex -5 -30 5.0635
    endloop
  endfacet
  facet normal 1 0 0
    outer loop
      vertex 5 -30 5.0635
      vertex 5 -31.0959 0.973414
      vertex 5 -30 0.679759
    endloop
  endfacet
  facet normal 0 -0.965926 0.258819
    outer loop
      vertex -5 -30 5.0635
      vertex -5 -31.0959 0.973414
      vertex 5 -31.0959 0.973414
    endloop
  endfacet
  facet normal 0 -0.965926 0.258819
    outer loop
      vertex 5 -30 5.0635
      vertex -5 -30 5.0635
      vertex 5 -31.0959 0.973414
    endloop
  endfacet
  facet normal -1 0 0
    outer loop
      vertex -5 31.0959 0.973414
      vertex -5 30 0.679759
      vertex -5 30 5.0635
    endloop
  endfacet
  facet normal 0 0.965926 0.258819
    outer loop
      vertex -5 30 5.0635
      vertex 5 30 5.0635
      vertex -5 31.0959 0.973414
    endloop
  endfacet
  facet normal 0 0.965926 0.258819
    outer loop
      vertex -5 31.0959 0.973414
      vertex 5 30 5.0635
      vertex 5 31.0959 0.973414
    endloop
  endfacet
  facet normal 1 0 0
    outer loop
      vertex 5 30 5.0635
      vertex 5 30 0.679759
      vertex 5 31.0959 0.973414
    endloop
  endfacet
  facet normal 0 0.258819 -0.965926
    outer loop
      vertex -5 30 0.679759
      vertex -5 31.0959 0.973414
      vertex 5 30 0.679759
    endloop
  endfacet
  facet normal 0 0.258819 -0.965926
    outer loop
      vertex 5 30 0.679759
      vertex -5 31.0959 0.973414
      vertex 5 31.0959 0.973414
    endloop
  endfacet
  facet normal 0 -1 0
    outer loop
      vertex 59 4.5 0.25
      vertex 59 4.5 10.5
      vertex 57 4.5 10.5
    endloop
  endfacet
  facet normal 0 -1 0
    outer loop
      vertex 57 4.5 0.25
      vertex 59 4.5 0.25
      vertex 57 4.5 10.5
    endloop
  endfacet
  facet normal -1 0 0
    outer loop
      vertex 57 -4.5 10.5
      vertex 57 -4.5 0.25
      vertex 57 -28 10.5
    endloop
  endfacet
  facet normal -1 0 0
    outer loop
      vertex 57 -28 -8.5
      vertex 57 -4.5 0.25
      vertex 57 28 -8.5
    endloop
  endfacet
  facet normal -1 0 0
    outer loop
      vertex 57 28 10.5
      vertex 57 4.5 0.25
      vertex 57 4.5 10.5
    endloop
  endfacet
  facet normal -1 0 0
    outer loop
      vertex 57 28 -8.5
      vertex 57 4.5 0.25
      vertex 57 28 10.5
    endloop
  endfacet
  facet normal -1 0 0
    outer loop
      vertex 57 -4.5 0.25
      vertex 57 4.5 0.25
      vertex 57 28 -8.5
    endloop
  endfacet
  facet normal -1 0 0
    outer loop
      vertex 57 -28 10.5
      vertex 57 -4.5 0.25
      vertex 57 -28 -8.5
    endloop
  endfacet
  facet normal 0 -1 0
    outer loop
      vertex 57 28 -8.5
      vertex 57 28 10.5
      vertex -57 28 10.5
    endloop
  endfacet
  facet normal 0 -1 0
    outer loop
      vertex -57 28 -8.5
      vertex 57 28 -8.5
      vertex -57 28 10.5
    endloop
  endfacet
  facet normal 1 0 0
    outer loop
      vertex -57 28 -8.5
      vertex -57 28 10.5
      vertex -57 -28 10.5
    endloop
  endfacet
  facet normal 1 0 0
    outer loop
      vertex -57 -28 -8.5
      vertex -57 28 -8.5
      vertex -57 -28 10.5
    endloop
  endfacet
  facet normal 0 1 0
    outer loop
      vertex 57 -28 10.5
      vertex 57 -28 -8.5
      vertex -57 -28 10.5
    endloop
  endfacet
  facet normal 0 1 0
    outer loop
      vertex -57 -28 10.5
      vertex 57 -28 -8.5
      vertex -57 -28 -8.5
    endloop
  endfacet
  facet normal 0 1 0
    outer loop
      vertex 59 -4.5 10.5
      vertex 59 -4.5 0.25
      vertex 57 -4.5 10.5
    endloop
  endfacet
  facet normal 0 1 0
    outer loop
      vertex 57 -4.5 10.5
      vertex 59 -4.5 0.25
      vertex 57 -4.5 0.25
    endloop
  endfacet
  facet normal 0 0 1
    outer loop
      vertex 59 -4.5 0.25
      vertex 59 4.5 0.25
      vertex 57 4.5 0.25
    endloop
  endfacet
  facet normal 0 0 1
    outer loop
      vertex 57 -4.5 0.25
      vertex 59 -4.5 0.25
      vertex 57 4.5 0.25
    endloop
  endfacet
  facet normal 0 0 1
    outer loop
      vertex 57 -28 -8.5
      vertex 57 28 -8.5
      vertex -57 28 -8.5
    endloop
  endfacet
  facet normal 0 0 1
    outer loop
      vertex -57 -28 -8.5
      vertex 57 -28 -8.5
      vertex -57 28 -8.5
    endloop
  endfacet
endsolid OpenSCAD_Model
